<svg width="104" height="29" viewBox="0 0 104 29" fill="none" xmlns="http://www.w3.org/2000/svg">
<path d="M29.7238 2.39046V4.68766C29.7238 5.47528 29.6418 6.47074 29.4777 7.67404L28.2119 17.0598C28.0712 17.913 27.5321 18.3396 26.5944 18.3396H21.918C20.8163 18.3178 20.3357 17.7489 20.4764 16.6331L21.707 7.4115C21.7773 6.93018 21.8242 6.48168 21.8477 6.06599H2.57921C1.52437 6.06599 0.996944 5.58467 0.996944 4.62203V2.12792C0.996944 1.16528 1.52437 0.68396 2.57921 0.68396H27.8954C29.1143 0.68396 29.7238 1.25279 29.7238 2.39046ZM28.9854 22.9341C30.0403 22.9341 30.5677 23.4154 30.5677 24.378V26.8721C30.5677 27.8348 30.0403 28.3161 28.9854 28.3161H1.7705C0.715653 28.3161 0.188232 27.8348 0.188232 26.8721V24.378C0.188232 23.4154 0.715653 22.9341 1.7705 22.9341H9.18955V15.583C9.18955 14.5985 9.71697 14.1062 10.7718 14.1062H15.4131C16.468 14.1062 16.9954 14.5985 16.9954 15.583V22.9341H28.9854Z" fill="#2DDE72"/>
<path d="M44.0064 7.14893H57.4732V5.67216H44.0064V7.14893ZM65.1033 9.70868C65.1033 10.6713 64.5172 11.1526 63.3452 11.1526H38.1345C36.9624 11.1526 36.3764 10.6713 36.3764 9.70868V1.34028C36.3764 0.465151 36.9038 0.0275879 37.9587 0.0275879H42.4242C43.479 0.0275879 44.0064 0.465151 44.0064 1.34028V1.83254H57.4732V1.34028C57.4732 0.465151 58.0007 0.0275879 59.0555 0.0275879H63.521C64.5758 0.0275879 65.1033 0.465151 65.1033 1.34028V9.70868ZM64.5407 12.0059C65.4783 12.0059 65.9471 12.4325 65.9471 13.2858V14.9594C65.9471 15.8127 65.4783 16.2393 64.5407 16.2393H36.9741C36.0365 16.2393 35.5677 15.8127 35.5677 14.9594V13.2858C35.5677 12.4325 36.0365 12.0059 36.9741 12.0059H64.5407ZM63.9078 25.3297C64.7282 25.3297 65.1384 25.6907 65.1384 26.4127V27.8894C65.1384 28.6114 64.7282 28.9724 63.9078 28.9724H37.8532C36.8452 28.9724 36.3412 28.502 36.3412 27.5613V22.7371C36.3412 21.8401 36.8218 21.3916 37.7829 21.3916H57.3326V20.7025H37.5719C36.7515 20.7025 36.3412 20.3415 36.3412 19.6195V18.274C36.3412 17.552 36.7515 17.191 37.5719 17.191H63.6968C64.6579 17.191 65.1384 17.6395 65.1384 18.5365V23.2622C65.1384 24.1592 64.6579 24.6077 63.6968 24.6077H44.1471V25.3297H63.9078Z" fill="#2DDE72"/>
<path d="M78.2256 11.1526V13.6468L88.4224 13.2529C89.4772 13.2092 90.0046 13.6358 90.0046 14.5328V16.4034C90.0046 17.191 89.571 17.6176 88.7036 17.6833L73.4436 18.2412C71.8027 18.2849 70.9706 17.7598 70.9471 16.6659V8.46162C70.9471 7.47711 71.4746 6.98485 72.5294 6.98485H82.4449V4.85172H72.5294C71.4746 4.85172 70.9471 4.41416 70.9471 3.53903V1.70127C70.9471 0.804263 71.4746 0.35576 72.5294 0.35576H87.7191C88.774 0.35576 89.3014 0.826141 89.3014 1.7669V9.77431C89.3014 10.6932 88.774 11.1526 87.7191 11.1526H78.2256ZM100.623 1.50436V6.72231H102.452C103.202 6.72231 103.577 7.07236 103.577 7.77246V10.5947C103.577 11.2948 103.202 11.6449 102.452 11.6449H100.623V17.3551C100.623 18.3396 100.096 18.8319 99.0411 18.8319H94.3998C93.345 18.8319 92.8175 18.3396 92.8175 17.3551V1.50436C92.8175 0.519847 93.345 0.0275879 94.3998 0.0275879H99.0411C100.096 0.0275879 100.623 0.519847 100.623 1.50436ZM92.3604 27.4956L92.6417 25.5266C92.6886 25.1984 92.7238 24.914 92.7472 24.6734H73.2326C72.1778 24.6734 71.6504 24.2577 71.6504 23.4263V21.1947C71.6504 20.3415 72.1778 19.9148 73.2326 19.9148H99.0411C100.096 19.9148 100.623 20.3415 100.623 21.1947V23.7545C100.623 24.1264 100.565 24.7171 100.448 25.5266L100.131 27.8238C100.014 28.5895 99.4748 28.9724 98.5137 28.9724H93.8021C92.7238 28.9505 92.2432 28.4583 92.3604 27.4956Z" fill="#2DDE72"/>
</svg>
