<svg width="109" height="109" viewBox="0 0 109 109" fill="none" xmlns="http://www.w3.org/2000/svg">
<circle cx="54.5245" cy="54.6693" r="52" fill="#EAFCF1" stroke="#53E48B" stroke-width="4"/>
<path d="M54.5246 93.5119C73.3098 93.5119 88.5383 81.1183 88.5383 65.8301C88.5383 50.5418 73.3098 38.1483 54.5246 38.1483C35.7393 38.1483 20.5109 50.5418 20.5109 65.8301C20.5109 81.1183 35.7393 93.5119 54.5246 93.5119Z" fill="#7BEAA6"/>
<path d="M54.5245 46.138C63.0982 46.138 70.0487 42.117 70.0487 37.1568C70.0487 32.1967 63.0982 28.1757 54.5245 28.1757C45.9507 28.1757 39.0002 32.1967 39.0002 37.1568C39.0002 42.117 45.9507 46.138 54.5245 46.138Z" fill="#7BEAA6"/>
<path d="M36.995 73.0603C38.1008 73.0603 38.9973 72.1639 38.9973 71.058C38.9973 69.9522 38.1008 69.0557 36.995 69.0557C35.8891 69.0557 34.9927 69.9522 34.9927 71.058C34.9927 72.1639 35.8891 73.0603 36.995 73.0603Z" fill="#53E48B"/>
<path d="M39.9871 84.5232C41.0937 84.5232 41.9909 83.626 41.9909 82.5194C41.9909 81.4127 41.0937 80.5156 39.9871 80.5156C38.8804 80.5156 37.9833 81.4127 37.9833 82.5194C37.9833 83.626 38.8804 84.5232 39.9871 84.5232Z" fill="#53E48B"/>
<path d="M72.048 84.5202C73.1538 84.5202 74.0503 83.6237 74.0503 82.5179C74.0503 81.412 73.1538 80.5156 72.048 80.5156C70.9421 80.5156 70.0457 81.412 70.0457 82.5179C70.0457 83.6237 70.9421 84.5202 72.048 84.5202Z" fill="#53E48B"/>
<path d="M77.3871 78.043C78.3076 78.043 79.0539 77.2968 79.0539 76.3762C79.0539 75.4556 78.3076 74.7094 77.3871 74.7094C76.4665 74.7094 75.7202 75.4556 75.7202 76.3762C75.7202 77.2968 76.4665 78.043 77.3871 78.043Z" fill="#53E48B"/>
<path d="M33.2941 80.0363C34.7656 80.0363 35.9584 78.8434 35.9584 77.372C35.9584 75.9006 34.7656 74.7078 33.2941 74.7078C31.8227 74.7078 30.6299 75.9006 30.6299 77.372C30.6299 78.8434 31.8227 80.0363 33.2941 80.0363Z" fill="#53E48B"/>
<path d="M55.5728 20.0271V34.3802C55.5728 34.9597 55.1026 35.4285 54.5245 35.4285C53.9464 35.4285 53.4762 34.9597 53.4762 34.3802V20.0271C53.4762 19.4894 53.8791 19.0476 54.3987 18.9877C54.6698 19.0671 54.9424 19.151 55.2164 19.2423C55.4351 19.431 55.5728 19.7126 55.5728 20.0271Z" fill="#2DDE72"/>
<path d="M55.5727 20.0272V20.1425C55.0395 20.3492 54.3281 20.6352 53.476 21.0021C51.315 21.9366 48.2568 23.3953 44.9726 25.3916C38.7246 29.1925 26.7676 31.1814 23.3112 30.4535C23.3112 30.4535 35.0599 13.2834 54.3985 18.9878C54.6696 19.0672 54.9422 19.1511 55.2162 19.2424C55.4349 19.4311 55.5727 19.7127 55.5727 20.0272Z" fill="#2DDE72"/>
<path d="M54.5247 46.7324C46.0123 46.7324 42.0601 43.4511 41.8968 43.3103C41.4565 42.9344 41.4026 42.2725 41.7785 41.8322C42.1529 41.3934 42.8119 41.338 43.2522 41.7109C43.2761 41.7304 44.1657 42.4552 45.9703 43.1711C47.6566 43.839 50.5096 44.6357 54.5247 44.6357C55.1042 44.6357 55.573 45.1045 55.573 45.6841C55.573 46.2636 55.1042 46.7324 54.5247 46.7324Z" fill="#53E48B"/>
<path d="M54.5245 46.7324C53.9449 46.7324 53.4762 46.2637 53.4762 45.6841C53.4762 45.1045 53.9449 44.6358 54.5245 44.6358C58.5396 44.6358 61.3926 43.839 63.0789 43.1711C64.9 42.4493 65.7895 41.7184 65.7985 41.7109C66.2418 41.3425 66.9023 41.3979 67.2737 41.8397C67.6451 42.2815 67.5927 42.9375 67.1539 43.3119C66.9906 43.4512 63.0384 46.7339 54.526 46.7339L54.5245 46.7324Z" fill="#53E48B"/>
<path d="M54.5246 35.4284C53.015 35.4284 51.5788 35.1828 50.4825 34.7365C48.6 33.9697 48.3185 32.869 48.3185 32.2804C48.3185 31.6919 48.7872 31.2321 49.3668 31.2321C49.9464 31.2321 50.3957 31.6829 50.4151 32.246C50.5874 32.568 52.0041 33.3318 54.5246 33.3318C57.045 33.3318 58.4633 32.5695 58.634 32.246C58.652 31.6829 59.1147 31.2321 59.6823 31.2321C60.2499 31.2321 60.7307 31.7009 60.7307 32.2804C60.7307 32.86 60.4491 33.9697 58.5666 34.7365C57.4704 35.1828 56.0342 35.4284 54.5246 35.4284Z" fill="#53E48B"/>
</svg>
