<svg width="440" height="956" viewBox="0 0 440 956" fill="none" xmlns="http://www.w3.org/2000/svg">
<g clip-path="url(#clip0_52_1576)">
<rect width="440" height="956" fill="white"/>
<path d="M440 0H0V956H440V0Z" fill="#E4EFFF"/>
<path opacity="0.38" d="M244.222 279.507C275.35 279.507 302.954 293.897 320.118 316.083C323.257 320.141 327.821 322.888 332.853 323.893C380.705 333.454 417.427 389.218 417.427 456.578C417.426 495.182 405.364 529.977 386.06 554.449C383.295 557.954 381.825 562.312 381.839 566.777C381.942 600.092 365.644 632.237 336.328 649.687C303.922 668.975 259.939 668.733 227.229 649.965C226.163 649.353 225.107 648.718 224.061 648.062C223.297 647.582 222.335 647.601 221.54 648.026C216.012 650.977 210.194 653.504 204.107 655.556C174.682 665.473 141.559 665.367 112.073 655.636C74.1223 643.112 41.8446 611.295 28.1936 567.488C15.2503 525.952 21.9493 482.93 42.8571 450.201C46.7554 444.098 46.9405 436.273 43.6548 429.82C37.2709 417.282 33.6547 402.986 33.6547 387.812C33.6549 338.165 72.3535 297.918 120.09 297.918C126.669 297.918 133.282 297.918 139.861 297.918C146.29 297.918 152.555 298.648 158.583 300.033C161.117 300.615 163.856 300.494 165.93 298.926C182.006 286.768 202.339 279.507 224.45 279.507C231.033 279.507 237.638 279.507 244.222 279.507Z" fill="white"/>
<path opacity="0.38" d="M241.634 299.534C269.187 299.534 293.656 312.128 309.057 331.609C312.239 335.634 316.799 338.377 321.817 339.445C364.251 348.482 396.703 398.149 396.703 458.064C396.703 492.325 386.091 523.233 369.07 545.111C366.329 548.635 364.862 552.991 364.84 557.455C364.693 587.02 350.127 615.456 324.095 630.951C308.774 640.071 291.747 643.355 275.318 641.49C257.791 643.497 240.013 639.464 224.713 630.193C223.949 629.73 223.159 629.319 222.352 628.957C222.005 629.118 221.66 629.287 221.32 629.469C216.373 632.11 211.167 634.37 205.72 636.206C192.057 640.811 178.112 642.334 164.527 641.141C114.308 645.571 65.1961 611.811 48.2282 557.359C36.7818 520.627 42.4931 482.595 60.6755 453.431C64.5063 447.286 64.6839 439.469 61.4997 432.966C56.1396 422.018 53.1179 409.625 53.1178 396.498C53.1181 352.05 87.7637 316.018 130.502 316.018C133.491 316.018 136.44 316.196 139.341 316.539C142.248 316.194 145.205 316.018 148.202 316.018C155.072 316.018 161.732 316.951 168.073 318.698C169.639 318.045 171.135 317.207 172.524 316.188C186.759 305.744 204.586 299.534 223.934 299.534C226.923 299.534 229.875 299.683 232.784 299.972C235.693 299.683 238.646 299.534 241.634 299.534Z" fill="#C88B62"/>
<path d="M223.642 316.163C249.162 316.163 271.85 327.284 286.257 344.529C289.492 348.401 293.994 351.05 298.932 352.092C338.383 360.418 368.502 404.916 368.502 458.56C368.502 488.998 358.803 516.491 343.206 536.103C340.347 539.698 338.804 544.173 338.726 548.765C338.28 574.986 324.708 600.096 300.674 613.852C276.473 627.703 247.718 626.574 224.804 613.42C218.519 609.812 210.71 609.455 204.246 612.734C199.75 615.014 195.027 616.971 190.092 618.57C136.296 636.005 77.8291 604.297 59.5025 547.749C48.9899 515.311 53.9698 481.746 70.2813 455.729C74.2502 449.399 74.4268 441.303 71.1863 434.57C66.6262 425.097 64.0709 414.476 64.0709 403.259C64.071 363.334 96.4356 330.969 136.36 330.969C143.451 330.969 150.304 331.99 156.779 333.894C163.297 335.81 170.461 334.708 176.038 330.828C189.265 321.624 205.758 316.163 223.642 316.163Z" fill="#E69C60"/>
<path d="M240.178 316.163C265.699 316.163 288.386 327.284 302.793 344.529C306.029 348.401 310.53 351.05 315.468 352.093C354.919 360.419 385.038 404.915 385.038 458.559C385.038 488.997 375.339 516.49 359.742 536.102C356.883 539.697 355.34 544.172 355.262 548.764C354.816 574.986 341.245 600.095 317.211 613.851C293.009 627.702 264.253 626.574 241.34 613.42C235.054 609.812 227.245 609.455 220.781 612.734C216.285 615.014 211.562 616.971 206.628 618.57C152.832 636.005 94.3642 604.296 76.0378 547.748C65.5254 515.311 70.5056 481.746 86.8167 455.73C90.7856 449.4 90.962 441.304 87.7215 434.571C83.1614 425.098 80.6061 414.477 80.6061 403.259C80.6061 363.334 112.972 330.969 152.896 330.969C159.987 330.969 166.839 331.99 173.314 333.894C179.833 335.81 186.996 334.708 192.573 330.828C205.8 321.624 222.294 316.163 240.178 316.163Z" fill="#FFD5A4"/>
<path opacity="0.38" d="M98.9346 256.166L117.582 256.166C135.373 256.166 149.791 241.756 149.791 223.984C149.791 206.208 135.369 191.802 117.582 191.802L98.9346 191.802C81.1438 191.802 66.7265 206.212 66.7265 223.984C66.7265 241.756 81.1478 256.166 98.9346 256.166Z" fill="white"/>
<path d="M102.532 242.247L116.584 242.247C129.987 242.247 140.854 231.389 140.854 217.997C140.854 215.321 140.583 210.085 140.583 210.085C140.583 210.085 119.835 184.915 109.11 184.915L108.894 184.915C97.881 184.915 78.2935 213.094 78.2935 213.094C78.2935 213.094 78.2621 215.608 78.2621 218.001C78.2621 231.393 89.1292 242.251 102.532 242.251L102.532 242.247Z" fill="#E69C60"/>
<path d="M102.532 236.661L116.584 236.661C129.987 236.661 140.854 225.803 140.854 212.411C140.854 199.019 122.513 179.325 109.11 179.325L108.894 179.325C95.4906 179.325 78.2621 199.015 78.2621 212.411C78.2621 225.803 89.1292 236.661 102.532 236.661Z" fill="#FFD5A4"/>
<path d="M101.797 197.71C108.799 197.71 114.477 192.038 114.477 185.041L114.477 171.838C114.477 164.841 108.799 159.168 101.797 159.168C94.7947 159.168 89.1174 164.841 89.1174 171.838L89.1174 185.041C89.1174 192.038 94.7947 197.71 101.797 197.71Z" fill="#E69C60"/>
<path d="M100.503 184.314L93.3636 177.73C93.1199 177.502 92.994 177.196 92.994 176.89C92.994 176.611 93.0963 176.332 93.2968 176.112C93.7253 175.648 94.4527 175.617 94.9166 176.045L100.48 181.175L100.389 173.723C100.382 173.091 100.889 172.572 101.522 172.564L101.538 172.564C102.163 172.564 102.678 173.067 102.686 173.696L102.819 184.743L107.301 179.891C107.73 179.427 108.453 179.396 108.921 179.828C109.385 180.256 109.417 180.983 108.988 181.447L102.862 188.078L103.079 205.889C103.087 206.522 102.579 207.04 101.946 207.048L101.931 207.048C101.306 207.048 100.791 206.545 100.783 205.917L100.523 184.326C100.523 184.326 100.507 184.322 100.503 184.314Z" fill="#E69C60"/>
<path d="M123.633 212.411C130.636 212.411 136.313 206.738 136.313 199.741L136.313 186.538C136.313 179.541 130.636 173.868 123.633 173.868C116.631 173.868 110.954 179.541 110.954 186.538L110.954 199.741C110.954 206.738 116.631 212.411 123.633 212.411Z" fill="#E69C60"/>
<path d="M122.336 199.018L115.196 192.434C114.952 192.206 114.827 191.9 114.827 191.594C114.827 191.315 114.925 191.036 115.129 190.816C115.558 190.352 116.281 190.321 116.749 190.749L122.312 195.88L122.222 188.427C122.214 187.795 122.721 187.276 123.354 187.268L123.37 187.268C123.995 187.268 124.51 187.771 124.518 188.4L124.652 199.447L129.134 194.595C129.562 194.131 130.286 194.1 130.754 194.532C131.218 194.96 131.249 195.687 130.821 196.151L124.695 202.782L124.911 220.594C124.919 221.226 124.412 221.745 123.779 221.752L123.763 221.752C123.138 221.752 122.623 221.25 122.615 220.621L122.356 199.03C122.356 199.03 122.344 199.03 122.336 199.022L122.336 199.018Z" fill="#E69C60"/>
<path d="M146.834 575.777L139.195 555.722L132.802 560.688L117.587 561.324L112.955 577.054L118.821 590.014L123.405 589.908L146.649 587.177L146.834 575.777Z" fill="#7F8C8D"/>
<path d="M132.802 560.688L117.587 561.324L112.955 577.054L118.821 590.014L123.405 589.908L134.367 588.368L132.802 560.688Z" fill="#95A5A6"/>
<path d="M134.107 593.38L138.243 595.019L139.336 593.38L139.336 586.517L134.453 586.517L133.219 591.027L134.107 593.38Z" fill="#95A5A6"/>
<path d="M141.389 593.168L138.243 595.019L139.336 593.38L139.336 586.517L140.15 586.777L140.606 587.684L141.389 593.168Z" fill="#7F8C8D"/>
<path d="M139.336 586.517L134.453 586.517L133.219 591.027L134.107 593.38L135.59 588.906L139.336 586.517Z" fill="#E1E6EA"/>
<path d="M141.833 589.755L144.396 590.768L145.073 589.755L145.073 585.504L142.049 585.504L141.286 588.297L141.833 589.755Z" fill="#95A5A6"/>
<path d="M146.343 589.621L144.396 590.768L145.073 589.755L145.073 585.504L145.576 585.665L145.859 586.227L146.343 589.621Z" fill="#7F8C8D"/>
<path d="M145.073 585.504L142.049 585.504L141.286 588.297L141.833 589.754L142.753 586.985L145.073 585.504Z" fill="#E1E6EA"/>
<path d="M139.195 555.722L129.83 553.345L121.227 556.468L132.802 560.687L139.195 555.722Z" fill="#E1E6EA"/>
<path d="M117.587 561.324L121.227 556.469L132.802 560.688L117.587 561.324Z" fill="#BDC3C7"/>
<path d="M117.587 561.324L108.874 576.213L112.955 577.054L117.587 561.324Z" fill="#BDC3C7"/>
<path d="M108.874 576.213L110.592 587.531L118.821 590.014L112.955 577.054L108.874 576.213Z" fill="#BDC3C7"/>
<path d="M184.565 516.653C183.877 516.653 183.318 516.099 183.315 515.412C183.181 490.765 191.571 480.15 195.153 475.617L195.601 475.051C196.03 474.505 196.812 474.411 197.358 474.835C197.901 475.259 197.999 476.045 197.575 476.587L197.119 477.164C193.407 481.859 185.689 491.625 185.815 515.396C185.815 516.088 185.261 516.649 184.569 516.653L184.561 516.653L184.565 516.653Z" fill="#AB8463"/>
<path d="M196.706 475.2C196.997 472.187 193.958 468.671 189.354 466.95C184.75 465.23 180.146 465.894 178.388 468.365L196.706 475.2Z" fill="#6FA37D"/>
<path d="M214.929 482C215.22 478.987 212.181 475.471 207.577 473.751C202.973 472.03 198.369 472.694 196.611 475.165L214.929 482Z" fill="#6FA37D"/>
<path d="M198.679 475.09C196.753 472.753 192.118 472.415 187.643 474.454C183.169 476.493 180.385 480.213 180.893 483.199L198.683 475.09L198.679 475.09Z" fill="#6FA37D"/>
<path d="M214.96 466.495C213.034 464.157 208.399 463.819 203.924 465.858C199.45 467.897 196.666 471.617 197.174 474.603L214.964 466.495L214.96 466.495Z" fill="#6FA37D"/>
<path d="M196.651 474.411C198.99 472.486 199.328 467.854 197.288 463.383C195.247 458.913 191.524 456.131 188.536 456.638L196.651 474.415L196.651 474.411Z" fill="#6FA37D"/>
<path d="M203.311 491.566C205.65 489.641 205.988 485.01 203.948 480.539C201.907 476.069 198.184 473.287 195.196 473.794L203.311 491.57L203.311 491.566Z" fill="#6FA37D"/>
<path d="M176.784 516.653L176.776 516.653C176.084 516.653 175.526 516.088 175.53 515.396C175.636 495.797 169.279 487.756 166.22 483.886L165.842 483.407C165.418 482.865 165.512 482.079 166.059 481.655C166.601 481.23 167.392 481.325 167.816 481.871L168.186 482.338C171.166 486.109 178.145 494.937 178.035 515.412C178.035 516.099 177.472 516.653 176.784 516.653Z" fill="#AB8463"/>
<path d="M166.731 482.13C166.487 479.635 169.007 476.724 172.817 475.302C176.631 473.88 180.437 474.43 181.891 476.473L166.731 482.13Z" fill="#6FA37D"/>
<path d="M151.649 487.755C151.405 485.261 153.926 482.35 157.735 480.928C161.549 479.506 165.355 480.056 166.81 482.098L151.649 487.755Z" fill="#6FA37D"/>
<path d="M165.099 482.04C166.692 480.103 170.533 479.824 174.232 481.513C177.936 483.202 180.24 486.282 179.823 488.753L165.099 482.044L165.099 482.04Z" fill="#6FA37D"/>
<path d="M151.625 474.925C153.218 472.988 157.059 472.709 160.759 474.398C164.462 476.088 166.766 479.168 166.35 481.639L151.625 474.929L151.625 474.925Z" fill="#6FA37D"/>
<path d="M166.778 481.478C164.84 479.887 164.561 476.049 166.251 472.352C167.942 468.656 171.024 466.349 173.497 466.766L166.782 481.478L166.778 481.478Z" fill="#6FA37D"/>
<path d="M161.27 495.675C159.331 494.084 159.052 490.246 160.743 486.549C162.434 482.849 165.516 480.547 167.989 480.963L161.274 495.675L161.27 495.675Z" fill="#6FA37D"/>
<path d="M212.802 526.284C206.739 514.832 194.704 507.022 180.834 507.022C166.963 507.022 154.928 514.832 148.865 526.284L212.802 526.284Z" fill="#E69C60"/>
<path d="M343.284 459.192C336.447 446.273 322.868 437.464 307.223 437.464C291.579 437.464 278 446.273 271.163 459.192L343.284 459.192Z" fill="#E69C60"/>
<path d="M296.045 459.192C292.161 451.851 284.445 446.847 275.555 446.847C266.665 446.847 258.95 451.853 255.065 459.192L296.045 459.192Z" fill="#E69C60"/>
<path d="M231.926 386.574C225.863 375.123 213.828 367.313 199.957 367.313C186.087 367.313 174.052 375.123 167.989 386.574L231.926 386.574Z" fill="#E69C60"/>
<path d="M272.791 399.801C268.982 392.6 261.413 387.693 252.697 387.693C243.98 387.693 236.412 392.6 232.602 399.801L272.795 399.801L272.791 399.801Z" fill="#E69C60"/>
<path d="M260.571 539.357L272.756 526.428L276.817 529.586L286.491 529.991L289.432 539.989L285.706 548.229L282.79 548.159L261.129 545.112L260.571 539.357Z" fill="#BDC3C7"/>
<path d="M272.756 526.428L278.706 524.92L284.174 526.905L276.817 529.586L272.756 526.428Z" fill="#E1E6EA"/>
<path d="M286.49 529.991L284.174 526.904L276.817 529.586L286.49 529.991Z" fill="#BDC3C7"/>
<path d="M286.491 529.991L292.026 539.454L289.432 539.989L286.491 529.991Z" fill="#7F8C8D"/>
<path d="M292.026 539.454L290.934 546.648L285.706 548.229L289.432 539.989L292.026 539.454Z" fill="#7F8C8D"/>
<path d="M286.49 453.02C296.565 453.02 304.732 446.373 304.732 438.174C304.732 429.975 296.565 423.329 286.49 423.329C276.416 423.329 268.249 429.975 268.249 438.174C268.249 446.373 276.416 453.02 286.49 453.02Z" fill="#FF8E4C"/>
<path d="M286.491 427.614C291.089 427.614 294.816 425.457 294.816 422.797C294.816 420.137 291.089 417.98 286.491 417.98C281.892 417.98 278.165 420.137 278.165 422.797C278.165 425.457 281.892 427.614 286.491 427.614Z" fill="#FF8E4C"/>
<path d="M277.089 442.052C277.683 442.052 278.163 441.571 278.163 440.978C278.163 440.385 277.683 439.904 277.089 439.904C276.496 439.904 276.016 440.385 276.016 440.978C276.016 441.571 276.496 442.052 277.089 442.052Z" fill="#FFB183"/>
<path d="M278.694 448.2C279.288 448.2 279.769 447.718 279.769 447.125C279.769 446.531 279.288 446.05 278.694 446.05C278.101 446.05 277.619 446.531 277.619 447.125C277.619 447.718 278.101 448.2 278.694 448.2Z" fill="#FFB183"/>
<path d="M295.888 448.198C296.481 448.198 296.962 447.717 296.962 447.124C296.962 446.531 296.481 446.05 295.888 446.05C295.295 446.05 294.814 446.531 294.814 447.124C294.814 447.717 295.295 448.198 295.888 448.198Z" fill="#FFB183"/>
<path d="M298.752 444.724C299.245 444.724 299.646 444.324 299.646 443.83C299.646 443.336 299.245 442.936 298.752 442.936C298.258 442.936 297.858 443.336 297.858 443.83C297.858 444.324 298.258 444.724 298.752 444.724Z" fill="#FFB183"/>
<path d="M275.105 445.793C275.894 445.793 276.534 445.154 276.534 444.364C276.534 443.575 275.894 442.936 275.105 442.936C274.316 442.936 273.676 443.575 273.676 444.364C273.676 445.154 274.316 445.793 275.105 445.793Z" fill="#FFB183"/>
<path d="M287.053 413.61V421.308C287.053 421.618 286.801 421.87 286.491 421.87C286.181 421.87 285.928 421.618 285.928 421.308V413.61C285.928 413.322 286.144 413.085 286.423 413.053C286.568 413.095 286.715 413.14 286.862 413.189C286.979 413.29 287.053 413.441 287.053 413.61Z" fill="#9ACB83"/>
<path d="M287.053 413.61V413.672C286.767 413.783 286.385 413.936 285.928 414.133C284.769 414.634 283.129 415.417 281.368 416.487C278.017 418.526 271.605 419.592 269.751 419.202C269.751 419.202 276.052 409.994 286.423 413.053C286.568 413.095 286.715 413.14 286.862 413.189C286.979 413.291 287.053 413.442 287.053 413.61Z" fill="#9ACB83"/>
<path d="M286.491 427.932C281.925 427.932 279.806 426.172 279.718 426.097C279.482 425.895 279.453 425.54 279.655 425.304C279.856 425.069 280.209 425.039 280.445 425.239C280.458 425.25 280.935 425.638 281.903 426.022C282.807 426.38 284.337 426.808 286.491 426.808C286.801 426.808 287.053 427.059 287.053 427.37C287.053 427.681 286.801 427.932 286.491 427.932Z" fill="#FFB183"/>
<path d="M286.491 427.932C286.18 427.932 285.928 427.681 285.928 427.37C285.928 427.059 286.18 426.808 286.491 426.808C288.644 426.808 290.174 426.381 291.078 426.022C292.055 425.635 292.532 425.243 292.537 425.239C292.775 425.042 293.129 425.072 293.328 425.308C293.527 425.545 293.499 425.897 293.264 426.098C293.176 426.173 291.057 427.933 286.491 427.933L286.491 427.932Z" fill="#FFB183"/>
<path d="M286.49 421.87C285.681 421.87 284.911 421.738 284.323 421.499C283.313 421.088 283.162 420.497 283.162 420.182C283.162 419.866 283.414 419.62 283.724 419.62C284.035 419.62 284.276 419.861 284.287 420.163C284.379 420.336 285.139 420.746 286.49 420.746C287.842 420.746 288.603 420.337 288.694 420.163C288.704 419.861 288.952 419.62 289.257 419.62C289.561 419.62 289.819 419.871 289.819 420.182C289.819 420.493 289.668 421.088 288.658 421.499C288.07 421.738 287.3 421.87 286.49 421.87Z" fill="#FFB183"/>
<path d="M249.756 775.864C247.285 777.295 245.624 779.961 245.624 783.02C245.624 786.079 247.289 788.744 249.756 790.175V775.868V775.864Z" fill="white"/>
<path d="M249.756 789.786C247.285 791.217 245.624 793.883 245.624 796.942C245.624 800.001 247.289 802.666 249.756 804.097V789.79V789.786Z" fill="white"/>
<path d="M249.756 803.704C247.285 805.135 245.624 807.801 245.624 810.86C245.624 813.919 247.289 816.584 249.756 818.015V803.708V803.704Z" fill="white"/>
<path d="M257.283 111.354C254.812 112.785 253.15 115.45 253.15 118.509C253.15 121.568 254.816 124.234 257.283 125.665V111.357V111.354Z" fill="white"/>
<path d="M257.283 125.275C254.812 126.707 253.15 129.372 253.15 132.431C253.15 135.49 254.816 138.155 257.283 139.587V125.279V125.275Z" fill="white"/>
<path d="M34.433 125.275C31.962 126.707 30.3003 129.372 30.3003 132.431C30.3003 135.49 31.9659 138.155 34.433 139.587V125.279V125.275Z" fill="white"/>
<path d="M257.283 139.198C254.812 140.629 253.15 143.294 253.15 146.353C253.15 149.412 254.816 152.078 257.283 153.509V139.201V139.198Z" fill="white"/>
<path d="M327.606 800.69C325.135 802.122 323.473 804.787 323.473 807.846C323.473 810.905 325.139 813.57 327.606 815.002V800.694V800.69Z" fill="white"/>
<path d="M327.606 814.612C325.135 816.043 323.473 818.709 323.473 821.768C323.473 824.827 325.139 827.492 327.606 828.924V814.616V814.612Z" fill="white"/>
<path d="M327.606 828.534C325.135 829.965 323.473 832.631 323.473 835.69C323.473 838.749 325.139 841.414 327.606 842.845V828.538V828.534Z" fill="white"/>
<path d="M386.53 885.344C384.059 886.775 382.397 889.441 382.397 892.5C382.397 895.559 384.063 898.224 386.53 899.655V885.348V885.344Z" fill="white"/>
<path d="M386.53 899.266C384.059 900.697 382.397 903.363 382.397 906.422C382.397 909.481 384.063 912.146 386.53 913.577V899.27V899.266Z" fill="white"/>
<path d="M386.53 913.188C384.059 914.619 382.397 917.285 382.397 920.344C382.397 923.402 384.063 926.068 386.53 927.499V913.192V913.188Z" fill="white"/>
<path d="M388.8 138.738C386.333 140.169 384.667 142.834 384.667 145.893C384.667 148.952 386.333 151.618 388.8 153.049V138.741V138.738Z" fill="white"/>
<path d="M388.8 152.659C386.333 154.091 384.667 156.756 384.667 159.815C384.667 162.874 386.333 165.54 388.8 166.971V152.663V152.659Z" fill="white"/>
<path d="M388.8 166.582C386.333 168.013 384.667 170.678 384.667 173.737C384.667 176.796 386.333 179.462 388.8 180.893V166.585V166.582Z" fill="white"/>
<path d="M368.8 243.846C366.333 245.277 364.667 247.942 364.667 251.001C364.667 254.06 366.333 256.726 368.8 258.157V243.85V243.846Z" fill="white"/>
<path d="M368.8 257.768C366.333 259.199 364.667 261.864 364.667 264.923C364.667 267.982 366.333 270.648 368.8 272.079V257.772V257.768Z" fill="white"/>
<path d="M368.8 271.689C366.333 273.121 364.667 275.786 364.667 278.845C364.667 281.904 366.333 284.57 368.8 286.001V271.693V271.689Z" fill="white"/>
<path d="M388.8 21.8643C386.333 23.2954 384.667 25.961 384.667 29.0199C384.667 32.0787 386.333 34.7444 388.8 36.1755V21.8682V21.8643Z" fill="white"/>
<path d="M388.8 35.7861C386.333 37.2173 384.667 39.8829 384.667 42.9417C384.667 46.0006 386.333 48.6662 388.8 50.0974V35.7901V35.7861Z" fill="white"/>
<path d="M388.8 49.7083C386.333 51.1394 384.667 53.805 384.667 56.8639C384.667 59.9227 386.333 62.5884 388.8 64.0195V49.7122V49.7083Z" fill="white"/>
<path d="M178.462 120.526C175.991 121.957 174.329 124.623 174.329 127.682C174.329 130.741 175.995 133.406 178.462 134.837V120.53V120.526Z" fill="white"/>
<path d="M178.462 134.448C175.991 135.879 174.329 138.545 174.329 141.604C174.329 144.662 175.995 147.328 178.462 148.759V134.452V134.448Z" fill="white"/>
<path d="M178.462 148.37C175.991 149.801 174.329 152.467 174.329 155.526C174.329 158.585 175.995 161.25 178.462 162.681V148.374V148.37Z" fill="white"/>
<path d="M178.462 162.292C175.991 163.723 174.329 166.389 174.329 169.448C174.329 172.506 175.995 175.172 178.462 176.603V162.296V162.292Z" fill="white"/>
<path d="M30.1235 689.665C27.6564 691.096 25.9907 693.761 25.9907 696.82C25.9907 699.879 27.6564 702.545 30.1235 703.976V689.668V689.665Z" fill="white"/>
<path d="M30.1235 703.583C27.6564 705.014 25.9907 707.679 25.9907 710.738C25.9907 713.797 27.6564 716.463 30.1235 717.894V703.586V703.583Z" fill="white"/>
<path d="M30.1235 717.504C27.6564 718.936 25.9907 721.601 25.9907 724.66C25.9907 727.719 27.6564 730.385 30.1235 731.816V717.508V717.504Z" fill="white"/>
<path d="M30.1235 731.427C27.6564 732.858 25.9907 735.524 25.9907 738.582C25.9907 741.641 27.6564 744.307 30.1235 745.738V731.431V731.427Z" fill="white"/>
<path d="M77.8935 754.789C75.4264 756.22 73.7607 758.885 73.7607 761.944C73.7607 765.003 75.4264 767.669 77.8935 769.1V754.793V754.789Z" fill="white"/>
<path d="M77.8935 768.707C75.4264 770.138 73.7607 772.803 73.7607 775.862C73.7607 778.921 75.4264 781.587 77.8935 783.018V768.71V768.707Z" fill="white"/>
<path d="M77.8935 782.628C75.4264 784.06 73.7607 786.725 73.7607 789.784C73.7607 792.843 75.4264 795.509 77.8935 796.94V782.632V782.628Z" fill="white"/>
<path d="M77.8935 796.551C75.4264 797.982 73.7607 800.648 73.7607 803.706C73.7607 806.765 75.4264 809.431 77.8935 810.862V796.555V796.551Z" fill="white"/>
<path d="M77.8935 810.473C75.4264 811.904 73.7607 814.569 73.7607 817.628C73.7607 820.687 75.4264 823.353 77.8935 824.784V810.477V810.473Z" fill="white"/>
<path d="M38.5659 229.535C36.0948 230.966 34.4331 233.631 34.4331 236.69C34.4331 239.749 36.0988 242.415 38.5659 243.846V229.539V229.535Z" fill="white"/>
<path d="M38.5659 243.457C36.0948 244.888 34.4331 247.553 34.4331 250.612C34.4331 253.671 36.0988 256.337 38.5659 257.768V243.46V243.457Z" fill="white"/>
<path d="M38.5659 257.378C36.0948 258.81 34.4331 261.475 34.4331 264.534C34.4331 267.593 36.0988 270.259 38.5659 271.69V257.382V257.378Z" fill="white"/>
<path d="M38.5659 271.301C36.0948 272.732 34.4331 275.398 34.4331 278.456C34.4331 281.515 36.0988 284.181 38.5659 285.612V271.305V271.301Z" fill="white"/>
<path d="M38.5659 285.223C36.0948 286.654 34.4331 289.319 34.4331 292.378C34.4331 295.437 36.0988 298.103 38.5659 299.534V285.227V285.223Z" fill="white"/>
<path d="M273.889 865.789C271.422 867.22 269.756 869.885 269.756 872.944C269.756 876.003 271.422 878.669 273.889 880.1V865.793V865.789Z" fill="white"/>
<path d="M273.889 879.707C271.422 881.138 269.756 883.803 269.756 886.862C269.756 889.921 271.422 892.587 273.889 894.018V879.71V879.707Z" fill="white"/>
<path d="M273.889 893.628C271.422 895.06 269.756 897.725 269.756 900.784C269.756 903.843 271.422 906.509 273.889 907.94V893.632V893.628Z" fill="white"/>
<path d="M273.889 907.551C271.422 908.982 269.756 911.648 269.756 914.706C269.756 917.765 271.422 920.431 273.889 921.862V907.555V907.551Z" fill="white"/>
<path d="M273.889 921.473C271.422 922.904 269.756 925.569 269.756 928.628C269.756 931.687 271.422 934.353 273.889 935.784V921.477V921.473Z" fill="white"/>
<path d="M356.398 106.683C353.927 108.114 352.266 110.779 352.266 113.838C352.266 116.897 353.931 119.563 356.398 120.994V106.687V106.683Z" fill="white"/>
<path d="M410.921 594.613C408.45 596.044 406.789 598.71 406.789 601.768C406.789 604.827 408.454 607.493 410.921 608.924V594.617V594.613Z" fill="white"/>
<path d="M301.211 50.0974C298.744 51.5285 297.078 54.1942 297.078 57.253C297.078 60.3118 298.744 62.9775 301.211 64.4086V50.1013V50.0974Z" fill="white"/>
<path d="M87.436 28.6306C84.965 30.0617 83.3032 32.7274 83.3032 35.7862C83.3032 38.8451 84.9689 41.5107 87.436 42.9418V28.6345V28.6306Z" fill="white"/>
<path d="M229.234 703.39C226.763 704.821 225.101 707.486 225.101 710.545C225.101 713.604 226.767 716.27 229.234 717.701V703.394V703.39Z" fill="white"/>
<path d="M382.055 691.061C379.588 692.492 377.922 695.157 377.922 698.216C377.922 701.275 379.588 703.941 382.055 705.372V691.064V691.061Z" fill="white"/>
<path d="M206.9 682.183C204.429 683.614 202.768 686.279 202.768 689.338C202.768 692.397 204.433 695.063 206.9 696.494V682.187V682.183Z" fill="white"/>
<path d="M206.9 696.104C204.429 697.536 202.768 700.201 202.768 703.26C202.768 706.319 204.433 708.985 206.9 710.416V696.108V696.104Z" fill="white"/>
<path d="M189.65 33.8638C187.179 35.2949 185.518 37.9606 185.518 41.0194C185.518 44.0782 187.183 46.7439 189.65 48.175V33.8677V33.8638Z" fill="white"/>
<path d="M189.65 47.7856C187.179 49.2168 185.518 51.8824 185.518 54.9413C185.518 58.0001 187.183 60.6657 189.65 62.0969V47.7896V47.7856Z" fill="white"/>
<path d="M287.921 210.726C285.45 212.157 283.789 214.823 283.789 217.882C283.789 220.941 285.454 223.606 287.921 225.037V210.73V210.726Z" fill="white"/>
<path d="M287.921 224.648C285.45 226.079 283.789 228.745 283.789 231.804C283.789 234.862 285.454 237.528 287.921 238.959V224.652V224.648Z" fill="white"/>
<path d="M169.126 793.183C166.655 794.614 164.993 797.279 164.993 800.338C164.993 803.397 166.659 806.063 169.126 807.494V793.187V793.183Z" fill="white"/>
<path d="M169.126 807.104C166.655 808.536 164.993 811.201 164.993 814.26C164.993 817.319 166.659 819.985 169.126 821.416V807.108V807.104Z" fill="white"/>
<path d="M415.054 675.027C412.583 676.458 410.921 679.124 410.921 682.182C410.921 685.241 412.587 687.907 415.054 689.338V675.031V675.027Z" fill="white"/>
<path d="M415.054 688.949C412.583 690.38 410.921 693.045 410.921 696.104C410.921 699.163 412.587 701.829 415.054 703.26V688.953V688.949Z" fill="white"/>
<path d="M116.133 703.26C113.662 704.691 112 707.357 112 710.416C112 713.475 113.666 716.14 116.133 717.571V703.264V703.26Z" fill="white"/>
<path d="M116.133 717.182C113.662 718.613 112 721.279 112 724.338C112 727.397 113.666 730.062 116.133 731.493V717.186V717.182Z" fill="white"/>
<path d="M116.133 864.267C113.662 865.698 112 868.363 112 871.422C112 874.481 113.666 877.147 116.133 878.578V864.271V864.267Z" fill="white"/>
<path d="M116.133 878.188C113.662 879.62 112 882.285 112 885.344C112 888.403 113.666 891.069 116.133 892.5V878.192V878.188Z" fill="white"/>
<path d="M297.54 724.074C295.069 725.505 293.408 728.171 293.408 731.23C293.408 734.289 295.073 736.954 297.54 738.385V724.078V724.074Z" fill="white"/>
<path d="M297.54 737.996C295.069 739.427 293.408 742.093 293.408 745.152C293.408 748.211 295.073 750.876 297.54 752.307V738V737.996Z" fill="white"/>
</g>
<defs>
<clipPath id="clip0_52_1576">
<rect width="440" height="956" fill="white"/>
</clipPath>
</defs>
</svg>
