<svg width="440" height="956" viewBox="0 0 440 956" fill="none" xmlns="http://www.w3.org/2000/svg">
<g clip-path="url(#clip0_52_2117)">
<rect width="440" height="956" transform="translate(-0.335938 -0.432373)" fill="white"/>
<path d="M439.664 -0.432373H-0.335938V955.568H439.664V-0.432373Z" fill="#E4EFFF"/>
<path d="M249.42 775.432C246.949 776.863 245.288 779.529 245.288 782.588C245.288 785.646 246.953 788.312 249.42 789.743V775.436V775.432Z" fill="white"/>
<path d="M249.42 789.354C246.949 790.785 245.288 793.451 245.288 796.509C245.288 799.568 246.953 802.234 249.42 803.665V789.358V789.354Z" fill="white"/>
<path d="M249.42 803.272C246.949 804.703 245.288 807.369 245.288 810.428C245.288 813.486 246.953 816.152 249.42 817.583V803.276V803.272Z" fill="white"/>
<path d="M256.947 110.921C254.476 112.352 252.814 115.018 252.814 118.077C252.814 121.136 254.48 123.801 256.947 125.232V110.925V110.921Z" fill="white"/>
<path d="M256.947 124.843C254.476 126.274 252.814 128.94 252.814 131.999C252.814 135.057 254.48 137.723 256.947 139.154V124.847V124.843Z" fill="white"/>
<path d="M34.0971 124.843C31.6261 126.274 29.9644 128.94 29.9644 131.999C29.9644 135.057 31.63 137.723 34.0971 139.154V124.847V124.843Z" fill="white"/>
<path d="M256.947 138.765C254.476 140.196 252.814 142.862 252.814 145.921C252.814 148.98 254.48 151.645 256.947 153.076V138.769V138.765Z" fill="white"/>
<path d="M327.27 800.258C324.799 801.689 323.137 804.355 323.137 807.414C323.137 810.472 324.803 813.138 327.27 814.569V800.262V800.258Z" fill="white"/>
<path d="M327.27 814.18C324.799 815.611 323.137 818.277 323.137 821.336C323.137 824.394 324.803 827.06 327.27 828.491V814.184V814.18Z" fill="white"/>
<path d="M327.27 828.102C324.799 829.533 323.137 832.199 323.137 835.258C323.137 838.316 324.803 840.982 327.27 842.413V828.106V828.102Z" fill="white"/>
<path d="M386.194 884.912C383.723 886.343 382.062 889.009 382.062 892.067C382.062 895.126 383.727 897.792 386.194 899.223V884.916V884.912Z" fill="white"/>
<path d="M386.194 898.834C383.723 900.265 382.062 902.931 382.062 905.989C382.062 909.048 383.727 911.714 386.194 913.145V898.838V898.834Z" fill="white"/>
<path d="M386.194 912.756C383.723 914.187 382.062 916.853 382.062 919.911C382.062 922.97 383.727 925.636 386.194 927.067V912.76V912.756Z" fill="white"/>
<path d="M368.464 243.414C365.997 244.845 364.332 247.51 364.332 250.569C364.332 253.628 365.997 256.294 368.464 257.725V243.418V243.414Z" fill="white"/>
<path d="M368.464 257.335C365.997 258.767 364.332 261.432 364.332 264.491C364.332 267.55 365.997 270.216 368.464 271.647V257.339V257.335Z" fill="white"/>
<path d="M368.464 271.258C365.997 272.689 364.332 275.354 364.332 278.413C364.332 281.472 365.997 284.138 368.464 285.569V271.262V271.258Z" fill="white"/>
<path d="M388.464 21.4319C385.997 22.863 384.332 25.5287 384.332 28.5875C384.332 31.6463 385.997 34.312 388.464 35.7431V21.4358V21.4319Z" fill="white"/>
<path d="M388.464 35.3538C385.997 36.7849 384.332 39.4505 384.332 42.5094C384.332 45.5682 385.997 48.2339 388.464 49.665V35.3577V35.3538Z" fill="white"/>
<path d="M388.464 49.2759C385.997 50.707 384.332 53.3727 384.332 56.4315C384.332 59.4903 385.997 62.156 388.464 63.5871V49.2798V49.2759Z" fill="white"/>
<path d="M123.138 120.094C120.667 121.525 119.005 124.191 119.005 127.249C119.005 130.308 120.671 132.974 123.138 134.405V120.098V120.094Z" fill="white"/>
<path d="M123.138 134.016C120.667 135.447 119.005 138.112 119.005 141.171C119.005 144.23 120.671 146.896 123.138 148.327V134.02V134.016Z" fill="white"/>
<path d="M123.138 147.938C120.667 149.369 119.005 152.035 119.005 155.093C119.005 158.152 120.671 160.818 123.138 162.249V147.942V147.938Z" fill="white"/>
<path d="M123.138 161.86C120.667 163.291 119.005 165.956 119.005 169.015C119.005 172.074 120.671 174.74 123.138 176.171V161.864V161.86Z" fill="white"/>
<path d="M29.7875 689.232C27.3205 690.663 25.6548 693.329 25.6548 696.388C25.6548 699.447 27.3205 702.112 29.7875 703.543V689.236V689.232Z" fill="white"/>
<path d="M29.7875 703.15C27.3205 704.581 25.6548 707.247 25.6548 710.306C25.6548 713.365 27.3205 716.03 29.7875 717.461V703.154V703.15Z" fill="white"/>
<path d="M29.7875 717.072C27.3205 718.503 25.6548 721.169 25.6548 724.228C25.6548 727.287 27.3205 729.952 29.7875 731.383V717.076V717.072Z" fill="white"/>
<path d="M29.7875 730.994C27.3205 732.425 25.6548 735.091 25.6548 738.15C25.6548 741.209 27.3205 743.874 29.7875 745.305V730.998V730.994Z" fill="white"/>
<path d="M77.5576 754.356C75.0905 755.787 73.4248 758.453 73.4248 761.512C73.4248 764.571 75.0905 767.236 77.5576 768.667V754.36V754.356Z" fill="white"/>
<path d="M77.5576 768.274C75.0905 769.705 73.4248 772.371 73.4248 775.43C73.4248 778.489 75.0905 781.154 77.5576 782.585V768.278V768.274Z" fill="white"/>
<path d="M77.5576 782.196C75.0905 783.627 73.4248 786.293 73.4248 789.352C73.4248 792.411 75.0905 795.076 77.5576 796.508V782.2V782.196Z" fill="white"/>
<path d="M77.5576 796.118C75.0905 797.549 73.4248 800.215 73.4248 803.274C73.4248 806.333 75.0905 808.998 77.5576 810.429V796.122V796.118Z" fill="white"/>
<path d="M77.5576 810.04C75.0905 811.471 73.4248 814.137 73.4248 817.196C73.4248 820.255 75.0905 822.92 77.5576 824.352V810.044V810.04Z" fill="white"/>
<path d="M38.2299 229.102C35.7589 230.533 34.0972 233.199 34.0972 236.258C34.0972 239.317 35.7628 241.982 38.2299 243.414V229.106V229.102Z" fill="white"/>
<path d="M38.2299 243.024C35.7589 244.455 34.0972 247.121 34.0972 250.18C34.0972 253.239 35.7628 255.904 38.2299 257.335V243.028V243.024Z" fill="white"/>
<path d="M38.2299 256.946C35.7589 258.377 34.0972 261.043 34.0972 264.102C34.0972 267.161 35.7628 269.826 38.2299 271.258V256.95V256.946Z" fill="white"/>
<path d="M38.2299 270.868C35.7589 272.299 34.0972 274.965 34.0972 278.024C34.0972 281.083 35.7628 283.748 38.2299 285.179V270.872V270.868Z" fill="white"/>
<path d="M38.2299 284.79C35.7589 286.221 34.0972 288.887 34.0972 291.946C34.0972 295.005 35.7628 297.67 38.2299 299.102V284.794V284.79Z" fill="white"/>
<path d="M273.553 865.356C271.086 866.787 269.42 869.453 269.42 872.512C269.42 875.571 271.086 878.236 273.553 879.667V865.36V865.356Z" fill="white"/>
<path d="M273.553 879.274C271.086 880.705 269.42 883.371 269.42 886.43C269.42 889.489 271.086 892.154 273.553 893.585V879.278V879.274Z" fill="white"/>
<path d="M273.553 893.196C271.086 894.627 269.42 897.293 269.42 900.352C269.42 903.411 271.086 906.076 273.553 907.508V893.2V893.196Z" fill="white"/>
<path d="M273.553 907.118C271.086 908.549 269.42 911.215 269.42 914.274C269.42 917.333 271.086 919.998 273.553 921.429V907.122V907.118Z" fill="white"/>
<path d="M273.553 921.04C271.086 922.471 269.42 925.137 269.42 928.196C269.42 931.255 271.086 933.92 273.553 935.352V921.044V921.04Z" fill="white"/>
<path d="M356.062 106.25C353.591 107.681 351.93 110.347 351.93 113.406C351.93 116.465 353.595 119.13 356.062 120.561V106.254V106.25Z" fill="white"/>
<path d="M410.585 594.18C408.114 595.612 406.453 598.277 406.453 601.336C406.453 604.395 408.118 607.061 410.585 608.492V594.184V594.18Z" fill="white"/>
<path d="M300.875 49.665C298.408 51.0962 296.742 53.7618 296.742 56.8206C296.742 59.8795 298.408 62.5451 300.875 63.9763V49.669V49.665Z" fill="white"/>
<path d="M87.1 28.1982C84.629 29.6294 82.9673 32.295 82.9673 35.3539C82.9673 38.4127 84.633 41.0783 87.1 42.5095V28.2022V28.1982Z" fill="white"/>
<path d="M381.719 690.628C379.252 692.059 377.586 694.725 377.586 697.784C377.586 700.842 379.252 703.508 381.719 704.939V690.632V690.628Z" fill="white"/>
<path d="M189.314 33.4314C186.843 34.8625 185.182 37.5282 185.182 40.587C185.182 43.6458 186.847 46.3115 189.314 47.7426V33.4353V33.4314Z" fill="white"/>
<path d="M189.314 47.3533C186.843 48.7844 185.182 51.4501 185.182 54.5089C185.182 57.5677 186.847 60.2334 189.314 61.6645V47.3572V47.3533Z" fill="white"/>
<path d="M168.79 792.75C166.319 794.181 164.657 796.847 164.657 799.906C164.657 802.965 166.323 805.63 168.79 807.061V792.754V792.75Z" fill="white"/>
<path d="M168.79 806.672C166.319 808.103 164.657 810.769 164.657 813.828C164.657 816.887 166.323 819.552 168.79 820.984V806.676V806.672Z" fill="white"/>
<path d="M414.718 674.594C412.247 676.026 410.585 678.691 410.585 681.75C410.585 684.809 412.251 687.475 414.718 688.906V674.598V674.594Z" fill="white"/>
<path d="M414.718 688.516C412.247 689.947 410.585 692.613 410.585 695.672C410.585 698.731 412.251 701.396 414.718 702.828V688.52V688.516Z" fill="white"/>
<path d="M115.797 702.828C113.326 704.259 111.665 706.925 111.665 709.984C111.665 713.042 113.33 715.708 115.797 717.139V702.832V702.828Z" fill="white"/>
<path d="M115.797 716.75C113.326 718.181 111.665 720.847 111.665 723.905C111.665 726.964 113.33 729.63 115.797 731.061V716.754V716.75Z" fill="white"/>
<path d="M115.797 863.834C113.326 865.265 111.665 867.931 111.665 870.99C111.665 874.049 113.33 876.714 115.797 878.145V863.838V863.834Z" fill="white"/>
<path d="M115.797 877.756C113.326 879.187 111.665 881.853 111.665 884.912C111.665 887.971 113.33 890.636 115.797 892.067V877.76V877.756Z" fill="white"/>
<path d="M297.205 723.642C294.734 725.073 293.072 727.739 293.072 730.797C293.072 733.856 294.737 736.522 297.205 737.953V723.646V723.642Z" fill="white"/>
<path d="M297.205 737.564C294.734 738.995 293.072 741.661 293.072 744.72C293.072 747.778 294.737 750.444 297.205 751.875V737.568V737.564Z" fill="white"/>
<path opacity="0.38" d="M194.565 180.825C214.204 180.825 231.578 190.815 242.162 206.132C244.263 209.172 247.15 211.62 250.57 213.021C284.223 226.8 307.747 258.311 307.747 294.981C307.747 307.811 309.716 320.123 307.891 331.229C306.364 340.52 308.765 351.702 316.535 357.02C355.629 383.776 377.267 428.347 385.163 481.882C385.669 485.31 387.302 488.465 389.707 490.96C405.789 507.641 416.637 529.25 419.442 553.654C426.46 614.709 380.485 670.142 316.754 677.468C309.341 678.32 302.015 678.483 294.844 678.01C291.739 677.805 288.588 677.806 285.482 678.01C280.054 678.365 274.708 679.323 269.528 680.984C259.718 684.13 249.484 686.363 238.901 687.579C227.284 688.914 215.555 689.771 203.889 690.586C99.19 697.898 35.9678 621.17 25.3164 528.505C17.4342 459.931 32.5105 396.209 79.8476 360.221C87.3353 354.528 89.8993 342.871 88.8506 333.523C87.0041 317.066 92.1005 297.525 92.1006 294.981C92.1006 275.193 98.9506 256.907 110.546 242.099C110.883 241.732 110.929 241.389 110.929 240.985C110.929 209.726 151.006 184.916 182.603 182.09C186.464 181.261 190.465 180.825 194.565 180.825Z" fill="white"/>
<path d="M195.717 212.616C212.996 212.616 228.309 221.295 237.771 234.653C239.907 237.669 242.789 240.118 246.199 241.543C275.877 253.943 296.57 281.871 296.57 314.337C296.57 325.021 298.102 335.302 296.975 344.681C295.852 354.029 298.337 365.302 306.02 370.745C339.696 394.603 358.473 433.599 365.467 480.303C365.981 483.73 367.616 486.88 370.006 489.389C384.115 504.194 393.622 523.292 396.098 544.833C402.351 599.237 361.384 648.632 304.595 655.159C296.548 656.084 288.615 656.096 280.908 655.285C277.055 655.686 273.23 655.878 269.444 655.871C258.627 659.966 247.174 662.794 235.223 664.168C229.982 664.77 224.771 665.078 219.605 665.105C117.01 680.773 54.9122 609.493 44.9039 522.422C37.962 462.028 55.4908 405.857 97.4312 373.597C104.887 367.862 106.808 356.603 105.036 347.365C103.105 337.304 104.414 326.119 104.414 314.337C104.414 296.704 110.518 280.41 120.85 267.215C121.072 266.932 121.191 266.582 121.191 266.223C121.191 238.37 156.898 216.263 185.052 213.743C188.495 213.004 192.062 212.616 195.717 212.616Z" fill="#BCA190"/>
<path opacity="0.38" d="M358.694 200.195L340.046 200.195C322.256 200.195 307.838 185.785 307.838 168.013C307.838 150.237 322.26 135.831 340.046 135.831L358.694 135.831C376.485 135.831 390.902 150.241 390.902 168.013C390.902 185.785 376.481 200.195 358.694 200.195Z" fill="white"/>
<path d="M355.097 186.276L341.045 186.276C327.642 186.276 316.775 175.418 316.775 162.026C316.775 159.35 317.046 154.114 317.046 154.114C317.046 154.114 337.794 128.944 348.519 128.944L348.735 128.944C359.748 128.944 379.335 157.123 379.335 157.123C379.335 157.123 379.367 159.637 379.367 162.03C379.367 175.422 368.5 186.28 355.097 186.28L355.097 186.276Z" fill="#BE9F8E"/>
<path d="M355.097 180.69L341.045 180.69C327.642 180.69 316.775 169.832 316.775 156.44C316.775 143.048 335.116 123.354 348.519 123.354L348.735 123.354C362.138 123.354 379.367 143.044 379.367 156.44C379.367 169.832 368.5 180.69 355.097 180.69Z" fill="#F1E6D5"/>
<path d="M355.832 141.74C348.83 141.74 343.152 136.067 343.152 129.07L343.152 115.867C343.152 108.87 348.83 103.197 355.832 103.197C362.834 103.197 368.512 108.87 368.512 115.867L368.512 129.07C368.512 136.067 362.834 141.74 355.832 141.74Z" fill="#BE9F8E"/>
<path d="M357.126 128.343L364.266 121.759C364.509 121.531 364.635 121.225 364.635 120.919C364.635 120.64 364.533 120.361 364.332 120.141C363.904 119.677 363.176 119.646 362.713 120.074L357.149 125.205L357.24 117.752C357.248 117.12 356.74 116.601 356.107 116.593L356.092 116.593C355.466 116.593 354.951 117.096 354.944 117.725L354.81 128.772L350.328 123.92C349.899 123.456 349.176 123.425 348.708 123.857C348.244 124.285 348.213 125.012 348.641 125.476L354.767 132.107L354.55 149.918C354.543 150.551 355.05 151.07 355.683 151.077L355.698 151.077C356.324 151.077 356.839 150.575 356.847 149.946L357.106 128.355C357.106 128.355 357.122 128.351 357.126 128.343Z" fill="#BE9F8E"/>
<path d="M333.996 156.44C326.993 156.44 321.316 150.767 321.316 143.77L321.316 130.567C321.316 123.57 326.993 117.898 333.996 117.898C340.998 117.898 346.675 123.57 346.675 130.567L346.675 143.77C346.675 150.767 340.998 156.44 333.996 156.44Z" fill="#BE9F8E"/>
<path d="M335.293 143.047L342.433 136.463C342.677 136.235 342.803 135.929 342.803 135.623C342.803 135.344 342.704 135.065 342.5 134.845C342.071 134.381 341.348 134.35 340.88 134.778L335.317 139.909L335.407 132.456C335.415 131.824 334.908 131.305 334.275 131.297L334.259 131.297C333.634 131.297 333.119 131.8 333.111 132.429L332.977 143.476L328.495 138.624C328.067 138.16 327.343 138.129 326.875 138.561C326.412 138.989 326.38 139.716 326.809 140.18L332.934 146.811L332.718 164.623C332.71 165.255 333.217 165.774 333.85 165.781L333.866 165.781C334.491 165.781 335.006 165.279 335.014 164.65L335.273 143.059C335.273 143.059 335.285 143.059 335.293 143.051L335.293 143.047Z" fill="#BE9F8E"/>
<path d="M191.095 233.487C206.547 233.487 208.277 240.475 214.022 252.107C215.659 255.42 218.641 257.801 222.042 259.248C248.852 270.65 267.502 295.992 267.502 325.422C267.502 334.999 265.527 344.144 261.938 352.515C258.228 361.169 260.564 372.033 268.327 377.361C300.05 399.134 323.336 434.351 330.216 476.277C330.777 479.696 332.405 482.848 334.783 485.369C347.467 498.819 356.009 516.102 358.247 535.576C363.949 585.179 326.597 630.215 274.819 636.167C266.646 637.106 258.601 637.015 250.826 636.001C247.992 635.631 245.088 635.903 242.482 637.076C234.529 640.654 230.692 643.125 220.128 644.873C125.224 660.574 67.7589 595.175 58.5598 515.144C52.2892 460.591 75.193 409.818 114.263 380.278C121.765 374.605 123.663 363.673 119.596 355.192C115.241 346.107 112.818 336.03 112.818 325.422C112.818 309.345 118.383 294.489 127.803 282.458C128.006 282.2 128.115 281.882 128.115 281.554V281.554C128.115 254.561 164.897 233.487 191.095 233.487Z" fill="#E2C5B5"/>
<path d="M196.064 232.678C211.64 232.678 225.463 240.413 234.112 252.358C236.279 255.352 239.156 257.801 242.557 259.248C269.367 270.651 288.017 295.992 288.017 325.422C288.017 335 286.042 344.144 282.453 352.515C278.743 361.169 281.079 372.033 288.842 377.361C320.564 399.134 343.851 434.351 350.731 476.277C351.292 479.696 352.92 482.848 355.297 485.369C367.981 498.819 376.524 516.102 378.762 535.576C384.463 585.18 347.111 630.215 295.334 636.167C287.16 637.106 279.116 637.015 271.341 636.001C268.507 635.632 265.621 635.94 262.945 636.944C253.183 640.609 242.856 643.143 232.084 644.381C156.778 653.037 88.2736 595.175 79.0745 515.144C72.8039 460.591 95.7076 409.818 134.777 380.278C142.28 374.605 144.177 363.673 140.111 355.192C135.756 346.107 133.333 336.03 133.333 325.422C133.333 309.345 138.898 294.489 148.318 282.458C148.52 282.2 148.629 281.882 148.629 281.554V281.554C148.629 254.561 169.867 232.678 196.064 232.678Z" fill="#F1E6D5"/>
<path d="M337.086 506.367C330.249 493.448 316.67 484.639 301.026 484.639C285.381 484.639 271.802 493.448 264.965 506.367L337.086 506.367Z" fill="#E2C5B5"/>
<path d="M289.847 506.367C285.963 499.026 278.247 494.022 269.357 494.022C260.468 494.022 252.752 499.028 248.868 506.367L289.847 506.367Z" fill="#E2C5B5"/>
<path d="M185.909 450.954C185.221 450.954 184.663 450.4 184.659 449.712C184.525 425.065 192.915 414.45 196.497 409.917L196.945 409.351C197.374 408.805 198.156 408.711 198.703 409.135C199.245 409.559 199.344 410.345 198.919 410.887L198.463 411.465C194.751 416.159 187.034 425.925 187.159 449.697C187.159 450.388 186.605 450.95 185.913 450.954L185.905 450.954L185.909 450.954Z" fill="#AB8463"/>
<path d="M198.05 409.5C198.341 406.487 195.302 402.971 190.698 401.251C186.094 399.53 181.49 400.194 179.732 402.665L198.05 409.5Z" fill="#6FA37D"/>
<path d="M216.273 416.301C216.564 413.287 213.525 409.771 208.921 408.051C204.317 406.33 199.713 406.994 197.956 409.465L216.273 416.301Z" fill="#6FA37D"/>
<path d="M200.024 409.39C198.097 407.053 193.462 406.715 188.988 408.754C184.514 410.793 181.73 414.513 182.237 417.499L200.028 409.39L200.024 409.39Z" fill="#6FA37D"/>
<path d="M216.305 400.795C214.378 398.458 209.743 398.12 205.269 400.159C200.794 402.197 198.011 405.918 198.518 408.903L216.309 400.795L216.305 400.795Z" fill="#6FA37D"/>
<path d="M197.995 408.711C200.334 406.786 200.672 402.154 198.632 397.684C196.591 393.213 192.868 390.432 189.88 390.939L197.995 408.715L197.995 408.711Z" fill="#6FA37D"/>
<path d="M204.655 425.866C206.994 423.941 207.332 419.31 205.292 414.839C203.251 410.369 199.528 407.587 196.54 408.094L204.655 425.87L204.655 425.866Z" fill="#6FA37D"/>
<path d="M178.129 450.954L178.121 450.954C177.429 450.954 176.87 450.388 176.874 449.697C176.98 430.097 170.623 422.056 167.564 418.186L167.187 417.707C166.762 417.165 166.856 416.379 167.403 415.955C167.946 415.531 168.736 415.625 169.16 416.171L169.53 416.638C172.51 420.41 179.489 429.237 179.379 449.712C179.379 450.4 178.817 450.954 178.129 450.954Z" fill="#AB8463"/>
<path d="M168.075 416.43C167.832 413.936 170.352 411.025 174.162 409.602C177.975 408.18 181.781 408.73 183.236 410.773L168.075 416.43Z" fill="#6FA37D"/>
<path d="M152.993 422.056C152.75 419.561 155.27 416.65 159.08 415.228C162.893 413.806 166.699 414.356 168.154 416.399L152.993 422.056Z" fill="#6FA37D"/>
<path d="M166.443 416.34C168.036 414.403 171.877 414.124 175.577 415.814C179.28 417.503 181.584 420.583 181.167 423.054L166.443 416.344L166.443 416.34Z" fill="#6FA37D"/>
<path d="M152.97 409.225C154.562 407.289 158.403 407.01 162.103 408.699C165.807 410.388 168.111 413.468 167.694 415.939L152.97 409.229L152.97 409.225Z" fill="#6FA37D"/>
<path d="M168.122 415.778C166.184 414.187 165.905 410.349 167.596 406.652C169.286 402.956 172.369 400.65 174.842 401.066L168.126 415.778L168.122 415.778Z" fill="#6FA37D"/>
<path d="M162.614 429.976C160.676 428.385 160.397 424.546 162.087 420.85C163.778 417.149 166.86 414.847 169.333 415.263L162.618 429.976L162.614 429.976Z" fill="#6FA37D"/>
<path d="M214.147 460.584C208.084 449.133 196.049 441.323 182.178 441.323C168.307 441.323 156.273 449.133 150.21 460.584L214.147 460.584Z" fill="#E2C5B5"/>
<path d="M227.081 341.97C220.262 341.97 214.733 336.446 214.733 329.633L214.733 316.775C214.733 309.962 220.262 304.438 227.081 304.438C233.899 304.438 239.428 309.962 239.428 316.775L239.428 329.633C239.428 336.446 233.899 341.97 227.081 341.97Z" fill="#BE9F8E"/>
<path d="M228.344 328.929L235.297 322.517C235.534 322.295 235.657 321.997 235.657 321.699C235.657 321.427 235.557 321.155 235.362 320.941C234.945 320.49 234.24 320.459 233.785 320.876L228.367 325.872L228.455 318.615C228.463 317.999 227.969 317.494 227.353 317.487L227.337 317.487C226.729 317.487 226.227 317.977 226.223 318.589L226.093 329.346L221.728 324.621C221.311 324.17 220.607 324.139 220.151 324.56C219.699 324.977 219.669 325.685 220.086 326.136L226.051 332.594L225.84 349.939C225.833 350.555 226.326 351.059 226.943 351.067L226.958 351.067C227.567 351.067 228.069 350.577 228.072 349.965L228.325 328.94C228.325 328.94 228.34 328.937 228.344 328.933L228.344 328.929Z" fill="#BE9F8E"/>
<path d="M124.229 513.85L133.563 517.099L132.914 498.623L137.746 493.94L127.264 489.886L121.933 498.753L121.296 508.817L124.229 513.85Z" fill="#E1E6EA"/>
<path d="M144.237 518.23L133.563 517.099L131.778 499.487L133.256 492.204L140.907 493.316L146.51 499.904L144.237 518.23Z" fill="#95A5A6"/>
<path d="M144.237 518.23L150.272 517.209L155.041 516.399L158.175 513.221L158.304 506.826L155.246 497.283L151.027 495.63L140.907 493.316L146.509 499.904L144.237 518.23Z" fill="#7F8C8D"/>
<path d="M155.246 497.283L148.487 491.124L140.907 493.316L155.246 497.283Z" fill="#95A5A6"/>
<path d="M127.264 489.886L133.256 492.204L140.907 493.316L141.811 489.313L127.264 489.886Z" fill="#BDC3C7"/>
<path d="M148.487 491.124L141.811 489.313L140.907 493.316L148.487 491.124Z" fill="#BDC3C7"/>
<path d="M151.951 517.374L156.091 519.008L157.184 517.374L157.184 510.507L152.301 510.507L151.066 515.02L151.951 517.374Z" fill="#95A5A6"/>
<path d="M159.233 517.161L156.091 519.008L157.184 517.374L157.184 510.507L157.998 510.766L158.454 511.673L159.233 517.161Z" fill="#7F8C8D"/>
<path d="M157.184 510.507L152.301 510.507L151.066 515.02L151.951 517.374L153.437 512.899L157.184 510.507Z" fill="#E1E6EA"/>
<path d="M159.681 513.744L162.244 514.757L162.917 513.744L162.917 509.497L159.897 509.497L159.13 512.29L159.681 513.744Z" fill="#95A5A6"/>
<path d="M164.186 513.614L162.244 514.757L162.916 513.744L162.916 509.497L163.424 509.658L163.707 510.22L164.186 513.614Z" fill="#7F8C8D"/>
<path d="M162.917 509.497L159.897 509.497L159.13 512.29L159.681 513.744L160.601 510.978L162.917 509.497Z" fill="#E1E6EA"/>
<path d="M256.521 417.998L268.706 405.069L272.767 408.227L282.441 408.632L285.382 418.63L281.656 426.87L278.74 426.8L257.079 423.753L256.521 417.998Z" fill="#BDC3C7"/>
<path d="M268.707 405.069L274.657 403.561L280.124 405.546L272.767 408.228L268.707 405.069Z" fill="#E1E6EA"/>
<path d="M282.441 408.632L280.124 405.546L272.767 408.228L282.441 408.632Z" fill="#BDC3C7"/>
<path d="M282.441 408.632L287.976 418.096L285.382 418.63L282.441 408.632Z" fill="#7F8C8D"/>
<path d="M287.976 418.095L286.884 425.289L281.656 426.87L285.382 418.63L287.976 418.095Z" fill="#7F8C8D"/>
<path d="M290.878 491.982C292.292 488.946 294.837 486.663 297.94 485.664C299.631 485.118 301.273 484.217 302.751 482.954C308.343 478.18 309.503 470.051 305.342 464.796C301.181 459.541 293.273 459.15 287.681 463.924C286.261 465.137 285.126 466.567 284.292 468.11C282.707 471.046 279.967 473.104 276.819 473.91C274.558 474.489 272.328 475.623 270.344 477.318C264.078 482.665 262.617 491.566 267.077 497.199C271.538 502.831 280.233 503.065 286.497 497.718C288.421 496.075 289.892 494.097 290.877 491.982H290.878Z" fill="#C29E88"/>
<path d="M294.843 475.273C294.803 475.273 294.761 475.269 294.718 475.262C294.317 475.192 294.048 474.797 294.116 474.38L294.501 472.031C294.569 471.614 294.949 471.334 295.351 471.406C295.752 471.477 296.021 471.871 295.953 472.288L295.568 474.637C295.507 475.009 295.196 475.273 294.843 475.273Z" fill="#D7B39C"/>
<path d="M300.769 470.216C300.728 470.216 300.687 470.212 300.644 470.205C300.242 470.135 299.973 469.74 300.041 469.323L300.426 466.974C300.495 466.558 300.875 466.278 301.276 466.349C301.678 466.42 301.947 466.814 301.878 467.231L301.493 469.58C301.433 469.952 301.121 470.216 300.769 470.216Z" fill="#D7B39C"/>
<path d="M288.919 480.331C288.879 480.331 288.837 480.328 288.794 480.321C288.393 480.25 288.124 479.856 288.192 479.439L288.577 477.09C288.645 476.673 289.025 476.394 289.427 476.465C289.828 476.535 290.097 476.93 290.029 477.347L289.644 479.696C289.584 480.068 289.272 480.331 288.919 480.331Z" fill="#D7B39C"/>
<path d="M282.995 485.389C282.954 485.389 282.913 485.385 282.87 485.378C282.468 485.307 282.199 484.913 282.267 484.496L282.652 482.147C282.721 481.73 283.102 481.451 283.502 481.522C283.904 481.592 284.173 481.987 284.104 482.404L283.719 484.753C283.659 485.125 283.347 485.389 282.995 485.389Z" fill="#D7B39C"/>
<path d="M277.069 490.446C277.029 490.446 276.987 490.442 276.944 490.435C276.543 490.364 276.274 489.97 276.342 489.553L276.727 487.204C276.795 486.787 277.177 486.508 277.577 486.579C277.978 486.65 278.247 487.044 278.179 487.461L277.794 489.81C277.733 490.182 277.422 490.446 277.069 490.446Z" fill="#D7B39C"/>
<path d="M271.144 495.503C271.104 495.503 271.062 495.499 271.019 495.492C270.618 495.421 270.349 495.027 270.417 494.61L270.802 492.261C270.87 491.844 271.25 491.564 271.652 491.636C272.053 491.707 272.322 492.101 272.254 492.518L271.869 494.867C271.808 495.239 271.496 495.503 271.144 495.503Z" fill="#D7B39C"/>
<path d="M289.306 471.714C289.3 471.714 289.294 471.714 289.287 471.714L286.993 471.653C286.587 471.642 286.266 471.291 286.276 470.869C286.286 470.447 286.625 470.116 287.031 470.124L289.325 470.186C289.732 470.196 290.052 470.548 290.042 470.97C290.032 471.385 289.704 471.714 289.306 471.714Z" fill="#D7B39C"/>
<path d="M295.23 466.657C295.224 466.657 295.217 466.657 295.211 466.657L292.917 466.596C292.511 466.585 292.19 466.234 292.2 465.812C292.21 465.39 292.55 465.055 292.955 465.067L295.249 465.129C295.656 465.139 295.976 465.491 295.966 465.913C295.956 466.328 295.628 466.657 295.23 466.657Z" fill="#D7B39C"/>
<path d="M283.381 476.773C283.375 476.773 283.368 476.773 283.362 476.773L281.068 476.711C280.661 476.7 280.341 476.349 280.351 475.927C280.361 475.505 280.704 475.173 281.106 475.183L283.4 475.244C283.806 475.255 284.127 475.606 284.117 476.028C284.107 476.444 283.779 476.773 283.381 476.773Z" fill="#D7B39C"/>
<path d="M277.456 481.83C277.449 481.83 277.443 481.83 277.437 481.83L275.143 481.768C274.736 481.758 274.415 481.406 274.426 480.984C274.436 480.562 274.778 480.231 275.181 480.24L277.475 480.301C277.881 480.312 278.202 480.663 278.192 481.085C278.182 481.501 277.853 481.83 277.456 481.83Z" fill="#D7B39C"/>
<path d="M271.53 486.887C271.524 486.887 271.518 486.887 271.511 486.887L269.217 486.825C268.811 486.815 268.49 486.464 268.5 486.042C268.51 485.619 268.85 485.29 269.255 485.297L271.549 485.359C271.956 485.369 272.277 485.72 272.266 486.142C272.256 486.558 271.928 486.887 271.53 486.887Z" fill="#D7B39C"/>
<path d="M297.379 481.91C297.372 481.91 297.366 481.91 297.36 481.91L295.066 481.848C294.659 481.838 294.338 481.486 294.348 481.064C294.358 480.642 294.702 480.313 295.103 480.32L297.397 480.381C297.804 480.392 298.125 480.743 298.115 481.165C298.105 481.581 297.776 481.91 297.379 481.91Z" fill="#D7B39C"/>
<path d="M303.304 476.853C303.298 476.853 303.291 476.853 303.285 476.853L300.991 476.791C300.584 476.781 300.264 476.429 300.274 476.007C300.284 475.585 300.621 475.252 301.029 475.263L303.323 475.324C303.729 475.335 304.05 475.686 304.04 476.108C304.03 476.524 303.702 476.853 303.304 476.853Z" fill="#D7B39C"/>
<path d="M291.454 486.967C291.447 486.967 291.441 486.967 291.435 486.967L289.141 486.905C288.734 486.895 288.413 486.543 288.424 486.121C288.434 485.699 288.775 485.37 289.179 485.377L291.473 485.438C291.879 485.449 292.2 485.8 292.19 486.222C292.18 486.638 291.851 486.967 291.454 486.967Z" fill="#D7B39C"/>
<path d="M285.528 492.024C285.522 492.024 285.516 492.024 285.51 492.024L283.215 491.962C282.809 491.952 282.488 491.601 282.498 491.179C282.508 490.756 282.848 490.426 283.253 490.434L285.547 490.496C285.954 490.506 286.275 490.857 286.265 491.279C286.254 491.695 285.926 492.024 285.528 492.024Z" fill="#D7B39C"/>
<path d="M279.603 497.082C279.597 497.082 279.591 497.082 279.584 497.082L277.29 497.021C276.884 497.01 276.563 496.659 276.573 496.237C276.583 495.815 276.92 495.487 277.328 495.492L279.622 495.554C280.029 495.564 280.349 495.916 280.339 496.338C280.329 496.753 280.001 497.082 279.603 497.082Z" fill="#D7B39C"/>
<path d="M198.722 578.421L211.558 583.547L220.208 560.758L232.396 547.402L221.388 542.687L202.905 556.437L197.31 566.223L198.722 578.421Z" fill="#BDC3C7"/>
<path d="M227.678 583.547L211.559 583.547L220.208 560.758L232.396 547.402L241.05 547.402L230.431 561.937L227.678 583.547Z" fill="#95A5A6"/>
<path d="M245.968 577.545L228.099 580.263L237.035 559.211L249.514 559.211L245.968 577.545Z" fill="#2C3E4F"/>
<path d="M252.216 579.556L245.968 577.545L243.57 561.501L250.556 564.212L252.216 579.556Z" fill="#5A6772"/>
<path d="M227.678 583.547L234.991 582.357L237.004 565.476L242.642 563.115L248.681 565.044L252.216 579.556L256.411 578.876L257.602 569.59L252.452 558.401L247.34 549.366L241.05 547.402L230.43 561.937L227.678 583.547Z" fill="#7F8C8D"/>
<path d="M247.34 549.366L243.153 545.249L241.05 547.401L247.34 549.366Z" fill="#95A5A6"/>
<path d="M221.388 542.687L232.396 547.402L241.05 547.402L238.463 542.02L221.388 542.687Z" fill="#E1E6EA"/>
<path d="M243.153 545.249L238.463 542.02L241.05 547.402L243.153 545.249Z" fill="#BDC3C7"/>
<path d="M188.417 576.504L193.941 578.692L195.403 576.504L195.403 567.335L189.565 565.477L185.287 570.98L188.417 576.504Z" fill="#95A5A6"/>
<path d="M198.139 576.221L193.94 578.692L195.403 576.504L195.403 567.335L196.488 567.68L197.098 568.894L198.139 576.221Z" fill="#7F8C8D"/>
<path d="M195.403 567.335L189.565 565.476L185.287 570.98L188.417 576.504L190.398 570.528L195.403 567.335Z" fill="#E1E6EA"/>
<path d="M270.848 581.909L274.988 583.547L276.081 581.909L276.081 575.046L271.197 575.046L269.963 579.556L270.848 581.909Z" fill="#95A5A6"/>
<path d="M278.129 581.701L274.988 583.547L276.081 581.909L276.081 575.046L276.895 575.305L277.351 576.213L278.129 581.701Z" fill="#7F8C8D"/>
<path d="M276.081 575.046L271.197 575.046L269.963 579.556L270.848 581.909L272.334 577.439L276.081 575.046Z" fill="#E1E6EA"/>
<path d="M278.577 578.283L281.137 579.297L281.813 578.283L281.813 574.037L278.794 574.037L278.027 576.826L278.577 578.283Z" fill="#95A5A6"/>
<path d="M283.083 578.154L281.137 579.297L281.813 578.283L281.813 574.037L282.316 574.194L282.599 574.756L283.083 578.154Z" fill="#7F8C8D"/>
<path d="M281.813 574.037L278.794 574.037L278.027 576.826L278.577 578.283L279.497 575.514L281.813 574.037Z" fill="#E1E6EA"/>
<path d="M196.399 579.557C192.59 572.356 185.021 567.45 176.305 567.45C167.588 567.45 160.02 572.356 156.21 579.557L196.403 579.557L196.399 579.557Z" fill="#E2C5B5"/>
</g>
<defs>
<clipPath id="clip0_52_2117">
<rect width="440" height="956" fill="white" transform="translate(-0.335938 -0.432373)"/>
</clipPath>
</defs>
</svg>
