<svg width="440" height="956" viewBox="0 0 440 956" fill="none" xmlns="http://www.w3.org/2000/svg">
<g clip-path="url(#clip0_52_1211)">
<rect width="440" height="956" transform="translate(-0.438477)" fill="white"/>
<path d="M439.562 0H-0.438477V956H439.562V0Z" fill="#FAFAF9"/>
<path opacity="0.38" d="M79.1523 276.998L60.5045 276.998C42.7138 276.998 28.2964 262.588 28.2964 244.816C28.2964 227.039 42.7177 212.634 60.5045 212.634L79.1523 212.634C96.9431 212.634 111.36 227.043 111.36 244.816C111.36 262.588 96.9391 276.998 79.1523 276.998Z" fill="#E6DDD8"/>
<path opacity="0.38" d="M353.89 739.22C353.89 730.998 352.876 722.807 350.871 714.833L349.061 707.638C348.166 705.12 347.177 700.272 346.671 697.858C344.07 685.461 348.069 677.177 358.743 670.372C394.575 647.521 418.338 607.406 418.338 561.736V377.562C418.338 361.513 411.459 346.879 400.173 336.786C393.573 330.889 390.002 322.31 390.002 313.456V290.259C390.002 270.05 386.003 253.412 378.11 240.807C369.464 226.991 356.025 217.873 339.25 214.437C334.375 213.439 328.667 213.289 315.066 213.376L312.591 213.391C312.591 213.391 311.201 213.423 310.451 213.47C289.088 214.767 272.384 230.109 268.872 250.412C267.19 260.127 261.565 268.828 252.851 273.432C248.978 275.476 244.739 276.856 240.591 276.856H131.752C91.5956 276.856 59.0404 309.438 59.0404 349.627V429.959C59.0404 441.581 52.7117 452.306 42.4898 457.814C28.257 465.489 18.5615 480.551 18.5615 497.835V594.09C18.5615 653.929 67.2038 702.611 126.995 702.611C133.127 702.611 145.349 702.277 147.749 702.21L152.813 702.069C199.031 701.019 214.596 697.264 227.1 694.245C236.206 692.047 242.787 690.458 261.824 690.458H262.252C269.72 690.458 275.216 697.15 274.148 704.545C273.9 706.252 273.774 707.997 273.774 709.775V730.785C270.857 763.758 286.339 768.457 308.525 772.673C326.927 773.972 351.441 767.14 353.89 745.401V739.22Z" fill="#E6DDD8"/>
<path d="M34.4863 497.835C34.4863 482.564 46.9003 470.144 62.1545 470.144H74.9652V375.906C74.9652 331.07 111.414 294.588 156.218 294.588H238.794C260.668 294.588 284.113 273.502 284.113 258.421C284.113 243.339 295.364 232.039 309.73 231.166C310.221 231.139 311.172 231.119 311.172 231.119L313.368 231.107C326.096 231.029 330.893 231.19 333.906 231.807C358.18 236.777 370.488 256.443 370.488 290.255V341.63C386.72 345.507 398.824 360.144 398.824 377.558V577.742C398.824 630.115 356.247 672.726 303.916 672.726H260.031C212.709 672.726 230.721 682.524 150.62 684.344L145.462 684.49C144.892 684.506 131.433 684.883 125.206 684.883C75.1852 684.883 34.4903 644.155 34.4903 594.093V497.839L34.4863 497.835Z" fill="#E6DDD8" fill-opacity="0.8"/>
<path d="M298.291 258.421V341.308C298.291 348.766 292.249 354.813 284.796 354.813C277.344 354.813 271.302 348.766 271.302 341.308C271.302 323.34 256.747 308.777 238.798 308.777H156.222C119.176 308.777 89.143 338.835 89.143 375.91V470.832C89.143 478.29 83.101 484.337 75.6487 484.337H62.1544C54.7021 484.337 48.6602 490.384 48.6602 497.843V594.097C48.6602 636.406 82.9282 670.702 125.202 670.702C131.303 670.702 145.061 670.316 145.061 670.316C145.061 670.316 178.197 640.849 178.197 617.664V595.08C178.197 587.622 184.239 581.575 191.692 581.575H195.738C203.19 581.575 209.232 587.622 209.232 595.08V607.713C209.232 635.789 231.974 658.553 260.031 658.553H303.916C348.504 658.553 384.646 622.378 384.646 577.757V377.573C384.646 365.012 374.471 354.829 361.92 354.829C358.824 354.829 356.31 352.316 356.31 349.214V290.271C356.31 268.548 351.529 249.912 331.062 245.721C328.139 245.124 314.496 245.32 311.396 245.32C311.396 245.32 310.858 245.328 310.591 245.344C303.724 245.761 298.287 251.462 298.287 258.436L298.291 258.421Z" fill="#83B791"/>
<path d="M165.862 356.622H190.054V308.777H156.218C125.874 308.777 100.245 328.951 91.9639 356.622H165.862Z" fill="#83B791"/>
<path d="M315.14 258.421V341.308C315.14 348.766 309.098 354.813 301.645 354.813C294.193 354.813 288.151 348.766 288.151 341.308C288.151 323.34 273.596 308.777 255.647 308.777H173.071C136.025 308.777 105.992 338.835 105.992 375.91V470.832C105.992 478.291 99.9501 484.337 92.4978 484.337H79.0036C71.5513 484.337 65.5093 490.384 65.5093 497.843V594.097C65.5093 636.406 99.7773 670.702 142.052 670.702C171.319 670.702 195.047 646.955 195.047 617.664V595.08C195.047 587.622 201.089 581.575 208.541 581.575H212.587C220.039 581.575 226.081 587.622 226.081 595.08V607.713C226.081 635.789 248.823 658.553 276.88 658.553H320.765C365.353 658.553 401.495 622.378 401.495 577.757V377.573C401.495 365.012 391.321 354.829 378.769 354.829C375.673 354.829 373.159 352.316 373.159 349.214V290.271C373.159 265.446 353.049 245.32 328.245 245.32C321.005 245.32 315.136 251.19 315.136 258.436L315.14 258.421Z" fill="#8FD3A4"/>
<path d="M75.5547 263.079L61.503 263.079C48.1 263.079 37.2329 252.221 37.2329 238.828C37.2329 236.153 37.5042 230.916 37.5042 230.916C37.5042 230.916 58.2515 205.747 68.9771 205.747L69.1933 205.747C80.2059 205.747 99.7934 233.926 99.7934 233.926C99.7934 233.926 99.8248 236.44 99.8248 238.832C99.8248 252.224 88.9578 263.083 75.5547 263.083L75.5547 263.079Z" fill="#83B791"/>
<path d="M75.5547 257.493L61.503 257.493C48.1 257.493 37.2329 246.635 37.2329 233.243C37.2329 219.85 55.5741 200.157 68.9771 200.157L69.1933 200.157C82.5963 200.157 99.8248 219.846 99.8248 233.242C99.8248 246.635 88.9578 257.493 75.5547 257.493Z" fill="#8FD3A4"/>
<path d="M329.934 735.208C329.577 735.208 329.29 734.835 329.29 734.379C329.29 733.923 329.581 733.549 329.934 733.549C330.288 733.549 330.579 733.923 330.579 734.379C330.579 734.835 330.288 735.208 329.934 735.208Z" fill="#F1CD3A"/>
<path d="M335.277 735.574C334.92 735.574 334.633 735.201 334.633 734.745C334.633 734.289 334.924 733.915 335.277 733.915C335.631 733.915 335.921 734.289 335.921 734.745C335.921 735.201 335.631 735.574 335.277 735.574Z" fill="#F1CD3A"/>
<path d="M76.2899 218.542C69.2877 218.542 63.6104 212.87 63.6104 205.873L63.6104 192.669C63.6104 185.673 69.2877 180 76.2899 180C83.2922 180 88.9695 185.673 88.9695 192.669L88.9695 205.873C88.9695 212.87 83.2922 218.542 76.2899 218.542Z" fill="#83B791"/>
<path d="M77.5835 205.146L84.7234 198.562C84.9671 198.334 85.0929 198.028 85.0929 197.721C85.0929 197.442 84.9907 197.163 84.7902 196.943C84.3617 196.48 83.6343 196.448 83.1704 196.877L77.6071 202.007L77.6975 194.555C77.7054 193.922 77.1982 193.404 76.5652 193.396L76.5495 193.396C75.9243 193.396 75.4093 193.899 75.4014 194.527L75.2677 205.574L70.7856 200.723C70.3571 200.259 69.6337 200.228 69.1658 200.66C68.7019 201.088 68.6704 201.815 69.099 202.278L75.2245 208.91L75.0082 226.721C75.0004 227.354 75.5076 227.872 76.1406 227.88L76.1563 227.88C76.7814 227.88 77.2965 227.377 77.3043 226.749L77.5638 205.158C77.5638 205.158 77.5795 205.154 77.5835 205.146Z" fill="#83B791"/>
<path d="M54.4535 233.242C47.4512 233.242 41.7739 227.57 41.7739 220.573L41.7739 207.37C41.7739 200.373 47.4512 194.7 54.4535 194.7C61.4558 194.7 67.1331 200.373 67.1331 207.37L67.1331 220.573C67.1331 227.57 61.4558 233.242 54.4535 233.242Z" fill="#83B791"/>
<path d="M55.751 219.85L62.8908 213.266C63.1346 213.038 63.2604 212.732 63.2604 212.425C63.2604 212.146 63.1621 211.868 62.9577 211.648C62.5291 211.184 61.8057 211.153 61.3378 211.581L55.7745 216.711L55.865 209.259C55.8728 208.627 55.3657 208.108 54.7327 208.1L54.7169 208.1C54.0918 208.1 53.5768 208.603 53.5689 209.232L53.4352 220.278L48.9531 215.427C48.5246 214.963 47.8012 214.932 47.3333 215.364C46.8694 215.792 46.8379 216.519 47.2664 216.982L53.392 223.614L53.1757 241.425C53.1679 242.058 53.675 242.576 54.308 242.584L54.3238 242.584C54.9489 242.584 55.4639 242.081 55.4718 241.453L55.7313 219.862C55.7313 219.862 55.7431 219.862 55.751 219.854L55.751 219.85Z" fill="#83B791"/>
<path d="M320.067 760.573L306.015 760.573C292.612 760.573 281.745 749.715 281.745 736.323C281.745 733.648 282.016 728.411 282.016 728.411C282.016 728.411 302.764 703.241 313.489 703.241L313.706 703.241C324.718 703.241 344.306 731.42 344.306 731.42C344.306 731.42 344.337 733.934 344.337 736.327C344.337 749.719 333.47 760.577 320.067 760.577L320.067 760.573Z" fill="#83B791"/>
<path d="M320.067 754.987L306.015 754.987C292.612 754.987 281.745 744.129 281.745 730.737C281.745 717.345 300.086 697.651 313.489 697.651L313.706 697.651C327.109 697.651 344.337 717.341 344.337 730.737C344.337 744.129 333.47 754.987 320.067 754.987Z" fill="#8FD3A4"/>
<path d="M320.802 716.037C313.8 716.037 308.123 710.364 308.123 703.367L308.123 690.164C308.123 683.167 313.8 677.494 320.802 677.494C327.804 677.494 333.482 683.167 333.482 690.164L333.482 703.367C333.482 710.364 327.804 716.037 320.802 716.037Z" fill="#83B791"/>
<path d="M322.096 702.64L329.236 696.056C329.479 695.829 329.605 695.522 329.605 695.216C329.605 694.937 329.503 694.658 329.302 694.438C328.874 693.974 328.146 693.943 327.683 694.371L322.119 699.502L322.21 692.049C322.218 691.417 321.71 690.898 321.077 690.89L321.062 690.89C320.436 690.89 319.921 691.393 319.914 692.022L319.78 703.069L315.298 698.217C314.869 697.753 314.146 697.722 313.678 698.154C313.214 698.582 313.183 699.309 313.611 699.773L319.737 706.404L319.52 724.216C319.513 724.848 320.02 725.367 320.653 725.375L320.668 725.375C321.294 725.375 321.809 724.872 321.817 724.243L322.076 702.652C322.076 702.652 322.092 702.648 322.096 702.64Z" fill="#83B791"/>
<path d="M298.966 730.737C291.963 730.737 286.286 725.064 286.286 718.068L286.286 704.864C286.286 697.867 291.963 692.195 298.966 692.195C305.968 692.195 311.645 697.867 311.645 704.864L311.645 718.068C311.645 725.064 305.968 730.737 298.966 730.737Z" fill="#83B791"/>
<path d="M300.263 717.345L307.403 710.76C307.647 710.533 307.773 710.226 307.773 709.92C307.773 709.641 307.674 709.362 307.47 709.142C307.041 708.678 306.318 708.647 305.85 709.075L300.287 714.206L300.377 706.753C300.385 706.121 299.878 705.602 299.245 705.595L299.229 705.595C298.604 705.595 298.089 706.097 298.081 706.726L297.947 717.773L293.465 712.921C293.037 712.458 292.313 712.426 291.845 712.858C291.382 713.286 291.35 714.013 291.779 714.477L297.904 721.108L297.688 738.92C297.68 739.552 298.187 740.071 298.82 740.079L298.836 740.079C299.461 740.079 299.976 739.576 299.984 738.947L300.244 717.356C300.244 717.356 300.255 717.356 300.263 717.349L300.263 717.345Z" fill="#83B791"/>
<path d="M133.725 422.21C126.907 422.21 121.378 416.686 121.378 409.873L121.378 397.015C121.378 390.202 126.907 384.678 133.725 384.678C140.544 384.678 146.073 390.202 146.073 397.015L146.073 409.873C146.073 416.686 140.544 422.21 133.725 422.21Z" fill="#83B791"/>
<path d="M134.989 409.169L141.942 402.757C142.179 402.535 142.302 402.237 142.302 401.939C142.302 401.667 142.202 401.395 142.007 401.181C141.589 400.73 140.885 400.699 140.429 401.116L135.012 406.112L135.1 398.855C135.108 398.239 134.614 397.734 133.997 397.727L133.982 397.727C133.373 397.727 132.872 398.217 132.868 398.829L132.738 409.586L128.373 404.861C127.956 404.41 127.251 404.379 126.796 404.8C126.344 405.217 126.313 405.925 126.731 406.376L132.696 412.834L132.485 430.179C132.477 430.795 132.971 431.299 133.588 431.307L133.603 431.307C134.212 431.307 134.713 430.817 134.717 430.205L134.97 409.18C134.97 409.18 134.985 409.177 134.989 409.173L134.989 409.169Z" fill="#83B791"/>
<path d="M297.237 582.971C291.11 582.971 286.142 578.007 286.142 571.885L286.142 560.332C286.142 554.21 291.11 549.246 297.237 549.246C303.364 549.246 308.332 554.21 308.332 560.332L308.332 571.885C308.332 578.007 303.364 582.971 297.237 582.971Z" fill="#83B791"/>
<path d="M298.369 571.253L304.617 565.492C304.83 565.292 304.94 565.024 304.94 564.756C304.94 564.512 304.851 564.268 304.675 564.075C304.3 563.67 303.664 563.642 303.258 564.017L298.39 568.506L298.469 561.985C298.476 561.432 298.032 560.978 297.478 560.971L297.464 560.971C296.917 560.971 296.467 561.411 296.46 561.961L296.343 571.628L292.421 567.382C292.046 566.98 291.413 566.949 291.004 567.327C290.598 567.702 290.57 568.338 290.945 568.744L296.305 574.546L296.116 590.131C296.109 590.685 296.553 591.139 297.107 591.146L297.12 591.146C297.667 591.146 298.118 590.706 298.125 590.156L298.352 571.263C298.352 571.263 298.366 571.263 298.369 571.256L298.369 571.253Z" fill="#83B791"/>
<path d="M274.246 590.355C268.119 590.355 263.151 585.391 263.151 579.269L263.151 567.716C263.151 561.594 268.119 556.63 274.246 556.63C280.373 556.63 285.341 561.594 285.341 567.716L285.341 579.269C285.341 585.391 280.373 590.355 274.246 590.355Z" fill="#83B791"/>
<path d="M275.378 578.637L281.626 572.875C281.839 572.676 281.949 572.408 281.949 572.14C281.949 571.896 281.86 571.652 281.684 571.459C281.309 571.054 280.673 571.026 280.267 571.401L275.399 575.89L275.478 569.369C275.485 568.816 275.041 568.362 274.487 568.355L274.474 568.355C273.927 568.355 273.476 568.795 273.469 569.345L273.352 579.011L269.43 574.766C269.055 574.364 268.422 574.333 268.013 574.711C267.607 575.086 267.579 575.722 267.954 576.127L273.314 581.93L273.125 597.515C273.118 598.069 273.562 598.522 274.116 598.529L274.13 598.529C274.677 598.529 275.127 598.089 275.134 597.539L275.361 578.647C275.361 578.647 275.375 578.644 275.378 578.64L275.378 578.637Z" fill="#83B791"/>
<path d="M375.376 615.346C365.189 596.096 344.956 582.971 321.646 582.971C298.335 582.971 278.103 596.096 267.916 615.346L375.376 615.346Z" fill="#83B791"/>
<path d="M304.99 615.346C299.202 604.408 287.706 596.953 274.46 596.953C261.214 596.953 249.718 604.411 243.93 615.346L304.99 615.346Z" fill="#83B791"/>
<path d="M234.275 370.443L308.994 370.443L275.116 299.029L234.275 370.443Z" fill="#536577"/>
<path opacity="0.16" d="M272.816 370.443L308.993 370.443L275.115 299.028L272.816 370.443Z" fill="#536577"/>
<path d="M283.274 329.127L285.493 332.29L289.289 328.906L275.116 299.028L258.808 327.547L262.368 330.865L271.869 326.119L277.256 331.974L283.274 329.127Z" fill="#ECF0F1"/>
<path d="M270.051 382.352L371.79 382.352L334.546 303.841L315.119 303.611L270.051 382.352Z" fill="#536577"/>
<path opacity="0.16" d="M322.53 382.352L371.789 382.352L334.545 303.841L325.071 303.437L322.53 382.352Z" fill="#536577"/>
<path d="M336.766 326.095L339.786 330.405L344.961 325.796L334.545 303.84L315.116 303.61L303.453 323.944L308.299 328.464L321.241 321.999L328.572 329.972L336.766 326.095Z" fill="#ECF0F1"/>
<path d="M330.022 323.416C328.578 323.416 327.406 322.245 327.406 320.802L327.406 303.781L332.638 303.781L332.638 320.805C332.638 322.248 331.466 323.419 330.022 323.419L330.022 323.416Z" fill="#E76253"/>
<path d="M323.998 312.489C322.554 312.489 321.382 311.318 321.382 309.875L321.382 303.611L326.614 303.611L326.614 309.875C326.614 311.318 325.442 312.489 323.998 312.489Z" fill="#E76253"/>
<path d="M347.101 291.133L327.717 291.133C320.742 291.133 315.089 296.782 315.089 303.751L335.75 303.751C342.019 303.751 347.101 298.673 347.101 292.409L347.101 291.133Z" fill="#7F8C8D"/>
<path d="M350.152 280.302L340.104 280.302C333.921 280.302 328.911 285.309 328.911 291.486L328.911 292.917L346.791 292.917C350.809 292.917 354.068 289.661 354.068 285.646L354.068 284.215C354.068 282.053 352.313 280.302 350.152 280.302Z" fill="#7F8C8D"/>
<path d="M359.383 279.573L349.981 279.573C347.879 279.573 346.175 277.87 346.175 275.77C346.175 273.67 347.879 271.968 349.981 271.968L359.383 271.968C361.485 271.968 363.189 273.67 363.189 275.77C363.189 277.87 361.485 279.573 359.383 279.573Z" fill="#7F8C8D"/>
<path d="M114.293 636.832L123.627 640.081L122.978 621.605L127.81 616.923L117.329 612.869L111.997 621.735L111.36 631.8L114.293 636.832Z" fill="#E1E6EA"/>
<path d="M134.302 641.212L123.627 640.081L121.842 622.47L123.32 615.186L130.971 616.298L136.574 622.886L134.302 641.212Z" fill="#95A5A6"/>
<path d="M134.302 641.212L140.337 640.191L145.106 639.382L148.239 636.204L148.369 629.808L145.31 620.266L141.091 618.612L130.971 616.298L136.574 622.886L134.302 641.212Z" fill="#7F8C8D"/>
<path d="M145.31 620.266L138.552 614.106L130.971 616.298L145.31 620.266Z" fill="#95A5A6"/>
<path d="M117.329 612.868L123.32 615.186L130.971 616.298L131.876 612.295L117.329 612.868Z" fill="#BDC3C7"/>
<path d="M138.552 614.106L131.876 612.295L130.971 616.298L138.552 614.106Z" fill="#BDC3C7"/>
<path d="M142.015 640.356L146.156 641.99L147.248 640.356L147.248 633.489L142.365 633.489L141.131 638.003L142.015 640.356Z" fill="#95A5A6"/>
<path d="M149.297 640.144L146.156 641.99L147.248 640.356L147.248 633.489L148.062 633.748L148.518 634.656L149.297 640.144Z" fill="#7F8C8D"/>
<path d="M147.248 633.489L142.365 633.489L141.131 638.003L142.015 640.356L143.502 635.881L147.248 633.489Z" fill="#E1E6EA"/>
<path d="M149.745 636.726L152.309 637.74L152.981 636.726L152.981 632.48L149.961 632.48L149.195 635.273L149.745 636.726Z" fill="#95A5A6"/>
<path d="M154.251 636.597L152.309 637.74L152.981 636.726L152.981 632.48L153.488 632.641L153.771 633.202L154.251 636.597Z" fill="#7F8C8D"/>
<path d="M152.981 632.479L149.961 632.479L149.195 635.273L149.745 636.726L150.665 633.96L152.981 632.479Z" fill="#E1E6EA"/>
<path d="M369.894 428.133L362.255 408.079L355.862 413.044L340.647 413.681L336.015 429.41L341.881 442.37L346.465 442.264L369.709 439.534L369.894 428.133Z" fill="#7F8C8D"/>
<path d="M355.862 413.044L340.647 413.681L336.015 429.41L341.881 442.37L346.465 442.264L357.427 440.724L355.862 413.044Z" fill="#95A5A6"/>
<path d="M357.167 445.737L361.304 447.375L362.397 445.737L362.397 438.874L357.513 438.874L356.279 443.384L357.167 445.737Z" fill="#95A5A6"/>
<path d="M364.449 445.525L361.304 447.375L362.397 445.737L362.397 438.874L363.21 439.133L363.666 440.041L364.449 445.525Z" fill="#7F8C8D"/>
<path d="M362.397 438.874L357.513 438.874L356.279 443.384L357.167 445.737L358.65 441.262L362.397 438.874Z" fill="#E1E6EA"/>
<path d="M364.893 442.111L367.457 443.125L368.133 442.111L368.133 437.86L365.109 437.86L364.347 440.654L364.893 442.111Z" fill="#95A5A6"/>
<path d="M369.403 441.977L367.457 443.125L368.133 442.111L368.133 437.86L368.636 438.021L368.919 438.583L369.403 441.977Z" fill="#7F8C8D"/>
<path d="M368.133 437.86L365.109 437.86L364.347 440.653L364.893 442.111L365.813 439.341L368.133 437.86Z" fill="#E1E6EA"/>
<path d="M362.255 408.079L352.89 405.702L344.287 408.825L355.862 413.044L362.255 408.079Z" fill="#E1E6EA"/>
<path d="M340.647 413.681L344.287 408.825L355.862 413.044L340.647 413.681Z" fill="#BDC3C7"/>
<path d="M340.647 413.681L331.934 428.569L336.015 429.41L340.647 413.681Z" fill="#BDC3C7"/>
<path d="M331.934 428.569L333.652 439.887L341.881 442.37L336.015 429.41L331.934 428.569Z" fill="#BDC3C7"/>
<path d="M241.235 502.38C240.547 502.38 239.989 501.826 239.985 501.138C239.851 476.491 248.241 465.877 251.823 461.343L252.271 460.777C252.7 460.231 253.482 460.137 254.029 460.561C254.571 460.986 254.67 461.771 254.245 462.313L253.789 462.891C250.078 467.585 242.36 477.352 242.486 501.123C242.486 501.814 241.931 502.376 241.239 502.38L241.231 502.38L241.235 502.38Z" fill="#AB8463"/>
<path d="M253.376 460.927C253.667 457.914 250.628 454.398 246.024 452.677C241.42 450.956 236.816 451.62 235.059 454.091L253.376 460.927Z" fill="#6FA37D"/>
<path d="M271.599 467.727C271.89 464.714 268.851 461.198 264.247 459.477C259.643 457.756 255.039 458.42 253.282 460.891L271.599 467.727Z" fill="#6FA37D"/>
<path d="M255.35 460.817C253.423 458.479 248.788 458.141 244.314 460.18C239.839 462.219 237.056 465.939 237.563 468.925L255.354 460.817L255.35 460.817Z" fill="#6FA37D"/>
<path d="M271.631 452.221C269.704 449.884 265.069 449.546 260.595 451.585C256.12 453.624 253.337 457.344 253.844 460.33L271.635 452.221L271.631 452.221Z" fill="#6FA37D"/>
<path d="M253.321 460.137C255.66 458.212 255.999 453.581 253.958 449.11C251.918 444.639 248.194 441.858 245.206 442.365L253.321 460.141L253.321 460.137Z" fill="#6FA37D"/>
<path d="M259.981 477.293C262.321 475.368 262.659 470.736 260.618 466.265C258.578 461.795 254.854 459.014 251.866 459.52L259.981 477.297L259.981 477.293Z" fill="#6FA37D"/>
<path d="M233.455 502.38L233.447 502.38C232.755 502.38 232.197 501.814 232.2 501.123C232.307 481.524 225.949 473.482 222.89 469.613L222.513 469.133C222.088 468.591 222.183 467.805 222.729 467.381C223.272 466.957 224.062 467.051 224.487 467.597L224.856 468.065C227.836 471.836 234.815 480.663 234.705 501.138C234.705 501.826 234.143 502.38 233.455 502.38Z" fill="#AB8463"/>
<path d="M223.401 467.856C223.158 465.362 225.678 462.451 229.488 461.029C233.301 459.607 237.107 460.157 238.562 462.199L223.401 467.856Z" fill="#6FA37D"/>
<path d="M208.319 473.482C208.076 470.988 210.596 468.077 214.406 466.655C218.219 465.232 222.025 465.782 223.48 467.825L208.319 473.482Z" fill="#6FA37D"/>
<path d="M221.77 467.766C223.362 465.83 227.203 465.551 230.903 467.24C234.606 468.929 236.91 472.009 236.494 474.48L221.77 467.77L221.77 467.766Z" fill="#6FA37D"/>
<path d="M208.296 460.652C209.888 458.715 213.729 458.436 217.429 460.125C221.133 461.815 223.437 464.894 223.02 467.365L208.296 460.656L208.296 460.652Z" fill="#6FA37D"/>
<path d="M223.449 467.204C221.51 465.613 221.231 461.775 222.922 458.079C224.612 454.382 227.695 452.076 230.168 452.492L223.452 467.204L223.449 467.204Z" fill="#6FA37D"/>
<path d="M217.94 481.402C216.002 479.811 215.723 475.973 217.413 472.276C219.104 468.575 222.186 466.273 224.659 466.69L217.944 481.402L217.94 481.402Z" fill="#6FA37D"/>
<path d="M269.472 512.01C263.41 500.559 251.375 492.749 237.504 492.749C223.633 492.749 211.598 500.559 205.536 512.01L269.472 512.01Z" fill="#83B791"/>
<path d="M184.094 508.527L196.279 495.598L200.34 498.757L210.014 499.161L212.955 509.159L209.229 517.399L206.313 517.329L184.652 514.283L184.094 508.527Z" fill="#BDC3C7"/>
<path d="M196.279 495.598L202.229 494.09L207.697 496.075L200.34 498.757L196.279 495.598Z" fill="#E1E6EA"/>
<path d="M210.013 499.161L207.697 496.075L200.34 498.757L210.013 499.161Z" fill="#BDC3C7"/>
<path d="M210.014 499.161L215.549 508.625L212.955 509.159L210.014 499.161Z" fill="#7F8C8D"/>
<path d="M215.549 508.625L214.457 515.818L209.229 517.399L212.955 509.159L215.549 508.625Z" fill="#7F8C8D"/>
</g>
<defs>
<clipPath id="clip0_52_1211">
<rect width="440" height="956" fill="white" transform="translate(-0.438477)"/>
</clipPath>
</defs>
</svg>
