<svg width="109" height="109" viewBox="0 0 109 109" fill="none" xmlns="http://www.w3.org/2000/svg">
<circle cx="54.4755" cy="54.6693" r="52" fill="#EAFCF1" stroke="#53E48B" stroke-width="4"/>
<g clip-path="url(#clip0_60_1013)">
<path d="M49.1908 55.8913C50.9978 52.2158 54.2504 49.4512 58.2145 48.2419C60.3765 47.5817 62.4739 46.4898 64.3632 44.9615C71.509 39.1816 72.9917 29.339 67.6739 22.9766C62.3562 16.6143 52.2514 16.1414 45.1056 21.9213C43.2906 23.3893 41.8401 25.1207 40.7753 26.9886C38.7488 30.5435 35.2478 33.0351 31.2255 34.0111C28.3359 34.7126 25.4867 36.0854 22.9504 38.1374C14.9431 44.6108 13.0764 55.3882 18.7765 62.2076C24.4767 69.027 35.5882 69.3095 43.5923 62.8361C46.0511 60.8475 47.9307 58.4527 49.1892 55.8913H49.1908Z" fill="#A5F1C2"/>
<path d="M54.2584 35.6616C54.2067 35.6616 54.1535 35.6569 54.0986 35.649C53.5856 35.5633 53.2419 35.0856 53.3291 34.5809L53.8211 31.737C53.9083 31.2323 54.3939 30.8927 54.907 30.98C55.42 31.0657 55.7637 31.5433 55.6766 32.048L55.1845 34.8919C55.107 35.3427 54.7085 35.6616 54.2584 35.6616Z" fill="#7BEAA6"/>
<path d="M61.8301 29.539C61.7785 29.539 61.7253 29.5342 61.6704 29.5263C61.1574 29.4406 60.8137 28.9629 60.9008 28.4582L61.3929 25.6143C61.48 25.1096 61.9657 24.7716 62.4787 24.8573C62.9918 24.943 63.3355 25.4207 63.2483 25.9253L62.7562 28.7693C62.6788 29.22 62.2803 29.539 61.8301 29.539Z" fill="#7BEAA6"/>
<path d="M46.6883 41.7859C46.6367 41.7859 46.5834 41.7812 46.5286 41.7732C46.0155 41.6875 45.6719 41.2099 45.759 40.7052L46.2511 37.8613C46.3382 37.3566 46.8238 37.0186 47.3369 37.1043C47.85 37.1899 48.1936 37.6676 48.1065 38.1723L47.6144 41.0162C47.537 41.467 47.1384 41.7859 46.6883 41.7859Z" fill="#7BEAA6"/>
<path d="M39.1166 47.9087C39.065 47.9087 39.0118 47.9039 38.9569 47.896C38.4439 47.8103 38.1002 47.3326 38.1873 46.8279L38.6794 43.984C38.7665 43.4793 39.2538 43.1413 39.7652 43.227C40.2783 43.3127 40.622 43.7904 40.5348 44.295L40.0427 47.139C39.9653 47.5897 39.5668 47.9087 39.1166 47.9087Z" fill="#7BEAA6"/>
<path d="M31.5449 54.0313C31.4932 54.0313 31.44 54.0266 31.3851 54.0186C30.8721 53.9329 30.5284 53.4552 30.6155 52.9506L31.1076 50.1066C31.1948 49.602 31.682 49.2639 32.1935 49.3496C32.7065 49.4353 33.0502 49.913 32.9631 50.4177L32.471 53.2616C32.3935 53.7123 31.995 54.0313 31.5449 54.0313Z" fill="#7BEAA6"/>
<path d="M23.9732 60.1541C23.9216 60.1541 23.8683 60.1493 23.8135 60.1414C23.3004 60.0557 22.9568 59.578 23.0439 59.0733L23.536 56.2294C23.6231 55.7247 24.1087 55.3851 24.6218 55.4724C25.1349 55.5581 25.4785 56.0357 25.3914 56.5404L24.8993 59.3843C24.8219 59.8351 24.4234 60.1541 23.9732 60.1541Z" fill="#7BEAA6"/>
<path d="M47.182 31.3529C47.174 31.3529 47.1659 31.3529 47.1578 31.3529L44.2263 31.2783C43.7068 31.2656 43.297 30.8403 43.3099 30.3293C43.3228 29.8183 43.7552 29.4183 44.2747 29.4279L47.2062 29.5025C47.7258 29.5152 48.1356 29.9405 48.1227 30.4515C48.1097 30.9546 47.6903 31.3529 47.182 31.3529Z" fill="#7BEAA6"/>
<path d="M54.7521 25.2302C54.744 25.2302 54.736 25.2302 54.7279 25.2302L51.7963 25.1556C51.2768 25.1429 50.867 24.7176 50.8799 24.2066C50.8928 23.6956 51.3268 23.2909 51.8448 23.3052L54.7763 23.3798C55.2958 23.3925 55.7056 23.8178 55.6927 24.3288C55.6798 24.8319 55.2603 25.2302 54.7521 25.2302Z" fill="#7BEAA6"/>
<path d="M39.6104 37.4772C39.6023 37.4772 39.5942 37.4772 39.5862 37.4772L36.6546 37.4026C36.1351 37.3899 35.7253 36.9646 35.7382 36.4536C35.7511 35.9426 36.19 35.5411 36.703 35.5522L39.6346 35.6268C40.1541 35.6395 40.5639 36.0648 40.551 36.5758C40.5381 37.0789 40.1186 37.4772 39.6104 37.4772Z" fill="#7BEAA6"/>
<path d="M32.0386 43.5999C32.0305 43.5999 32.0225 43.5999 32.0144 43.5999L29.0828 43.5253C28.5633 43.5126 28.1535 43.0873 28.1664 42.5763C28.1793 42.0653 28.6166 41.6637 29.1312 41.6748L32.0628 41.7494C32.5823 41.7621 32.9921 42.1875 32.9792 42.6985C32.9663 43.2016 32.5468 43.5999 32.0386 43.5999Z" fill="#7BEAA6"/>
<path d="M24.4669 49.7226C24.4589 49.7226 24.4508 49.7226 24.4427 49.7226L21.5112 49.648C20.9917 49.6353 20.5819 49.21 20.5948 48.699C20.6077 48.188 21.0417 47.7896 21.5596 47.7976L24.4911 47.8722C25.0107 47.8849 25.4205 48.3102 25.4076 48.8212C25.3947 49.3243 24.9752 49.7226 24.4669 49.7226Z" fill="#7BEAA6"/>
<path d="M57.4982 43.6967C57.4901 43.6967 57.4821 43.6967 57.474 43.6967L54.5424 43.6221C54.0229 43.6094 53.6131 43.1841 53.626 42.6731C53.6389 42.1621 54.0778 41.7637 54.5908 41.7717L57.5224 41.8463C58.0419 41.8589 58.4517 42.2843 58.4388 42.7953C58.4259 43.2984 58.0064 43.6967 57.4982 43.6967Z" fill="#7BEAA6"/>
<path d="M65.07 37.574C65.0619 37.574 65.0538 37.574 65.0458 37.574L62.1142 37.4994C61.5947 37.4867 61.1849 37.0614 61.1978 36.5504C61.2107 36.0394 61.6415 35.6363 62.1626 35.649L65.0942 35.7236C65.6137 35.7363 66.0235 36.1616 66.0106 36.6726C65.9977 37.1757 65.5782 37.574 65.07 37.574Z" fill="#7BEAA6"/>
<path d="M49.9265 49.8194C49.9185 49.8194 49.9104 49.8194 49.9023 49.8194L46.9708 49.7448C46.4513 49.7321 46.0415 49.3068 46.0544 48.7958C46.0673 48.2848 46.5029 47.8864 47.0192 47.8944L49.9507 47.969C50.4703 47.9817 50.8801 48.407 50.8672 48.918C50.8542 49.4211 50.4348 49.8194 49.9265 49.8194Z" fill="#7BEAA6"/>
<path d="M42.3548 55.9421C42.3467 55.9421 42.3386 55.9421 42.3306 55.9421L39.399 55.8675C38.8795 55.8548 38.4697 55.4295 38.4826 54.9185C38.4955 54.4075 38.9295 54.0076 39.4474 54.0171L42.379 54.0917C42.8985 54.1044 43.3083 54.5297 43.2954 55.0407C43.2825 55.5438 42.863 55.9421 42.3548 55.9421Z" fill="#7BEAA6"/>
<path d="M34.7831 62.0664C34.775 62.0664 34.767 62.0664 34.7589 62.0664L31.8274 61.9918C31.3078 61.9791 30.898 61.5538 30.9109 61.0428C30.9238 60.5317 31.3546 60.135 31.8758 60.1413L34.8073 60.2159C35.3268 60.2286 35.7366 60.6539 35.7237 61.165C35.7108 61.6681 35.2913 62.0664 34.7831 62.0664Z" fill="#7BEAA6"/>
<path d="M64.2744 81.7454C67.1931 78.8427 71.1814 77.2636 75.3295 77.3795C77.5915 77.443 79.9357 77.078 82.2268 76.2337C90.8907 73.0406 95.5309 64.1993 92.5929 56.4864C89.6549 48.7736 80.2503 45.1091 71.5864 48.3022C69.3857 49.1132 67.4448 50.2892 65.8217 51.7191C62.7352 54.436 58.6017 55.6802 54.4746 55.3232C51.5092 55.0677 48.363 55.4597 45.2879 56.5928C35.5833 60.1699 30.2703 69.7713 33.4213 78.0397C36.5723 86.308 46.99 90.1105 56.6946 86.5334C59.6746 85.4352 62.2415 83.7672 64.276 81.7454H64.2744Z" fill="#7BEAA6"/>
<path d="M35.9366 77.1113C33.3116 70.222 37.9292 62.1283 46.2301 59.0685C48.8229 58.1131 51.5931 57.7291 54.2391 57.9576C59.1729 58.3845 64.0486 56.8276 67.6142 53.6885C69.0372 52.4348 70.6926 51.4556 72.5302 50.7779C79.7921 48.1022 87.6623 51.0779 90.076 57.4133C92.4896 63.7486 88.5449 71.0806 81.2845 73.7563C79.3711 74.461 77.3946 74.791 75.4069 74.7355C70.5473 74.599 65.7926 76.4765 62.3642 79.8854C60.5507 81.6882 58.2645 83.1308 55.7508 84.0576C47.4499 87.1174 38.5632 84.0005 35.9382 77.1113H35.9366Z" fill="#2DDE72"/>
<path d="M80.4072 70.5344C86.3291 67.1469 89.0588 60.8979 86.5041 56.5768C83.9495 52.2558 77.0779 51.499 71.156 54.8866C65.2341 58.2741 62.5044 64.5231 65.0591 68.8441C67.6138 73.1651 74.4854 73.9219 80.4072 70.5344Z" fill="#53E48B"/>
<path d="M55.2702 79.8002C61.192 76.4127 63.9217 70.1637 61.367 65.8426C58.8124 61.5216 51.9408 60.7648 46.0189 64.1524C40.097 67.5399 37.3674 73.7889 39.922 78.1099C42.4767 82.431 49.3483 83.1877 55.2702 79.8002Z" fill="#53E48B"/>
</g>
<defs>
<clipPath id="clip0_60_1013">
<rect width="78" height="70" fill="white" transform="translate(15.4755 17.8776)"/>
</clipPath>
</defs>
</svg>
