<svg width="109" height="109" viewBox="0 0 109 109" fill="none" xmlns="http://www.w3.org/2000/svg">
<circle cx="54.4755" cy="54.6693" r="52" fill="#EAFCF1" stroke="#53E48B" stroke-width="4"/>
<mask id="mask0_60_1103" style="mask-type:alpha" maskUnits="userSpaceOnUse" x="4" y="4" width="101" height="101">
<circle cx="54.4755" cy="54.6693" r="50" fill="#CDF7DD"/>
</mask>
<g mask="url(#mask0_60_1103)">
<ellipse cx="10.8429" cy="15.2271" rx="10.8429" ry="15.2271" transform="matrix(0.971172 0.238378 -0.243932 0.969792 17.8219 49.1816)" fill="#2DDE72"/>
<ellipse cx="10.8495" cy="15.2176" rx="10.8495" ry="15.2176" transform="matrix(0.996243 -0.0866024 0.0887293 0.996056 68.9113 55.3192)" fill="#2DDE72"/>
<path d="M24.0104 100.47C16.6733 87.9393 22.715 61.0566 26.653 49.1816L80.1262 51.6385C81.8879 58.4462 84.9761 75.5933 83.2351 89.7206C81.4941 103.848 70.0741 109.734 64.5817 110.911C54.115 112.652 31.3474 113 24.0104 100.47Z" fill="#A5F1C2"/>
<path opacity="0.9" d="M37.4402 85.7364C37.5955 81.3697 29.3968 78.3131 25.4651 77.4092V92.1391C35.7915 91.0838 37.2446 87.7329 37.4402 85.7364Z" fill="url(#paint0_linear_60_1103)"/>
<path opacity="0.9" d="M60.4795 87.7943C60.3242 83.4276 68.5228 80.371 72.4546 79.4672V94.1971C62.1281 93.1418 60.6751 89.7909 60.4795 87.7943Z" fill="url(#paint1_linear_60_1103)"/>
<ellipse cx="8.83836" cy="10.3066" rx="8.83836" ry="10.3066" transform="matrix(0.984368 -0.176124 0.180344 0.983604 21.7585 94.0781)" fill="url(#paint2_linear_60_1103)"/>
<ellipse cx="8.83359" cy="10.5592" rx="8.83359" ry="10.5592" transform="matrix(0.961942 0.273252 -0.279493 0.960148 57.5247 91.4578)" fill="url(#paint3_linear_60_1103)"/>
<rect width="25.6208" height="3.13931" rx="1.56966" transform="matrix(0.99846 0.0554848 -0.0568537 0.998383 38.2985 53.208)" fill="#53E48B"/>
<rect width="8.27333" height="2.58094" rx="1.29047" transform="matrix(0.999545 -0.0301595 0.0309053 0.999522 38.4449 60.5325)" fill="#2DDE72"/>
<rect width="8.27048" height="2.58185" rx="1.29093" transform="matrix(0.985515 0.16959 -0.173663 0.984805 52.1782 60.6144)" fill="#2DDE72"/>
<path d="M43.9147 67.7949C44.3138 67.3041 45.0391 67.225 45.5348 67.6182L48.3873 69.8819L51.5358 67.9639C52.0753 67.6355 52.7843 67.804 53.1188 68.3399C53.4531 68.8759 53.2862 69.5767 52.7467 69.9053L48.9557 72.2139C48.8187 72.2973 48.671 72.3486 48.5211 72.3701C48.1933 72.4404 47.8377 72.3708 47.5563 72.1475L44.0895 69.3965C43.5938 69.0032 43.5155 68.2859 43.9147 67.7949Z" fill="#2DDE72"/>
<path d="M25.467 70.3365C25.1789 70.7889 24.574 70.9251 24.116 70.6404C23.658 70.3558 23.5205 69.7583 23.8086 69.3059L25.467 70.3365ZM25.99 65.8804C26.2782 65.428 26.883 65.2921 27.341 65.5767C27.7989 65.8613 27.9366 66.4588 27.6485 66.9113L25.467 70.3365L23.8086 69.3059L25.99 65.8804Z" fill="#2DDE72"/>
<path d="M28.8513 70.5515C28.5631 71.004 27.9583 71.1401 27.5003 70.8555C27.0423 70.5708 26.9047 69.9733 27.1928 69.5209L28.8513 70.5515ZM29.3743 66.0954C29.6625 65.6431 30.2673 65.5071 30.7253 65.7917C31.1832 66.0764 31.3209 66.6739 31.0327 67.1263L28.8513 70.5515L27.1928 69.5209L29.3743 66.0954Z" fill="#2DDE72"/>
<path d="M32.2357 70.7666C31.9475 71.219 31.3427 71.3552 30.8847 71.0705C30.4267 70.7859 30.2891 70.1884 30.5772 69.736L32.2357 70.7666ZM32.7587 66.3105C33.0469 65.8581 33.6517 65.7222 34.1097 66.0068C34.5676 66.2915 34.7053 66.889 34.4171 67.3414L32.2357 70.7666L30.5772 69.736L32.7587 66.3105Z" fill="#2DDE72"/>
<path d="M65.1444 72.6074C64.8562 73.0598 64.2514 73.1959 63.7934 72.9113C63.3354 72.6267 63.1978 72.0292 63.4859 71.5767L65.1444 72.6074ZM65.6674 68.1513C65.9556 67.6989 66.5604 67.5629 67.0184 67.8476C67.4763 68.1322 67.614 68.7297 67.3258 69.1821L65.1444 72.6074L63.4859 71.5767L65.6674 68.1513Z" fill="#2DDE72"/>
<path d="M68.5288 72.8224C68.2406 73.2748 67.6358 73.411 67.1778 73.1263C66.7198 72.8417 66.5822 72.2442 66.8703 71.7918L68.5288 72.8224ZM69.0518 68.3663C69.34 67.9139 69.9448 67.778 70.4028 68.0626C70.8607 68.3472 70.9983 68.9447 70.7102 69.3972L68.5288 72.8224L66.8703 71.7918L69.0518 68.3663Z" fill="#2DDE72"/>
<path d="M71.9132 73.0375C71.625 73.4899 71.0202 73.6261 70.5622 73.3414C70.1042 73.0568 69.9666 72.4593 70.2547 72.0069L71.9132 73.0375ZM72.4362 68.5814C72.7244 68.129 73.3292 67.9931 73.7872 68.2777C74.2451 68.5623 74.3827 69.1598 74.0946 69.6122L71.9132 73.0375L70.2547 72.0069L72.4362 68.5814Z" fill="#2DDE72"/>
<path d="M23.6163 46.2707C23.8788 41.0793 28.3005 37.0762 33.4923 37.3295L75.9786 39.4023C81.1704 39.6555 85.1664 44.0693 84.9038 49.2606C84.8251 50.818 83.4986 52.019 81.941 51.943L26.2938 49.2282C24.7363 49.1522 23.5375 47.8281 23.6163 46.2707Z" fill="#A5F1C2"/>
<path d="M23.1161 46.3252L84.4036 49.3152C84.3326 50.7185 83.1373 51.8007 81.7338 51.7322L25.5288 48.9902C24.1253 48.9217 23.0451 47.7286 23.1161 46.3252Z" fill="#53E48B"/>
<path d="M54.2145 13.6635C66.0706 13.6635 75.886 22.8148 77.5775 34.7428L31.2755 32.4818C33.811 21.6775 43.1194 13.6635 54.2145 13.6635Z" fill="#A5F1C2"/>
<path d="M77.6077 34.7443C77.7578 35.872 77.8356 37.024 77.8356 38.195C77.8356 38.8276 77.8127 39.4547 77.7682 40.0754L30.5968 37.772C30.6259 35.9533 30.8425 34.1824 31.2268 32.4795L77.6077 34.7443Z" fill="#53E48B"/>
<ellipse cx="61.7488" cy="22.6403" rx="1.36416" ry="1.34758" fill="#53E48B"/>
<ellipse cx="66.5777" cy="25.7269" rx="1.36416" ry="1.34758" fill="#53E48B"/>
<ellipse cx="61.9664" cy="28.1319" rx="1.36416" ry="1.34758" fill="#53E48B"/>
</g>
<defs>
<linearGradient id="paint0_linear_60_1103" x1="26.6144" y1="84.7742" x2="37.4423" y2="84.7742" gradientUnits="userSpaceOnUse">
<stop stop-color="#A5F1C2"/>
<stop offset="1" stop-color="#53E48B"/>
</linearGradient>
<linearGradient id="paint1_linear_60_1103" x1="72.4546" y1="87.867" x2="60.4773" y2="87.867" gradientUnits="userSpaceOnUse">
<stop stop-color="#A5F1C2"/>
<stop offset="1" stop-color="#53E48B"/>
</linearGradient>
<linearGradient id="paint2_linear_60_1103" x1="9.31247" y1="0.455296" x2="8.43803" y2="20.2823" gradientUnits="userSpaceOnUse">
<stop stop-color="#53E48B"/>
<stop offset="1" stop-color="#A5F1C2"/>
</linearGradient>
<linearGradient id="paint3_linear_60_1103" x1="8.63554" y1="0.735752" x2="11.6159" y2="20.354" gradientUnits="userSpaceOnUse">
<stop stop-color="#53E48B"/>
<stop offset="1" stop-color="#A5F1C2"/>
</linearGradient>
</defs>
</svg>
